<svg width="158" height="139" viewBox="0 0 158 139" fill="none" xmlns="http://www.w3.org/2000/svg">
<g id="Logo">
<path id="Vector" d="M120.741 61.0033C118.493 62.9908 116.772 65.3897 115.699 68.0283C114.627 70.6674 114.23 73.4817 114.537 76.2709L114.43 76.1771C114.745 79.4605 114.241 82.7643 112.953 85.859C111.666 88.9532 109.625 91.7633 106.974 94.0933C104.323 96.4228 101.125 98.2165 97.6038 99.3476C94.0828 100.479 90.3228 100.922 86.5871 100.645L86.6939 100.739C82.225 100.373 77.7366 101.228 73.8402 103.186C69.9443 105.145 66.8302 108.111 64.9232 111.682C63.0162 115.252 62.4082 119.252 63.1829 123.138C63.9582 127.023 66.0775 130.603 69.2527 133.391C72.4278 136.179 76.504 138.038 80.9254 138.715C85.3474 139.393 89.8987 138.855 93.96 137.176C98.0214 135.496 101.394 132.758 103.619 129.332C105.844 125.906 106.813 121.961 106.393 118.034L106.505 118.128C106.19 114.845 106.693 111.541 107.981 108.446C109.269 105.352 111.31 102.542 113.961 100.212C116.612 97.8823 119.81 96.0887 123.331 94.9576C126.852 93.8259 130.612 93.3828 134.348 93.6601L134.235 93.5663C137.886 93.8546 141.56 93.3286 144.918 92.0369C148.275 90.7453 151.208 88.7295 153.443 86.1769C155.678 83.6243 157.144 80.6167 157.704 77.4339C158.265 74.2505 157.902 70.9948 156.649 67.9673C155.396 64.9403 153.294 62.2402 150.538 60.1171C147.781 57.994 144.46 56.5168 140.88 55.8225C137.301 55.1282 133.581 55.2387 130.063 56.1441C126.546 57.05 123.346 58.7212 120.759 61.0033H120.741Z" fill="white"/>
<path id="Vector_2" d="M76.9838 88.4474L76.8711 88.3536C80.0462 88.6345 83.2529 88.2921 86.2596 87.3507C89.2657 86.4093 91.9966 84.8929 94.2541 82.9106C96.5111 80.9282 98.2395 78.5294 99.3126 75.8882C100.386 73.247 100.778 70.4296 100.461 67.6387L100.574 67.7326C100.258 64.4492 100.762 61.1454 102.049 58.0507C103.337 54.9565 105.378 52.1464 108.029 49.8164C110.68 47.4869 113.878 45.6932 117.399 44.5621C120.921 43.4302 124.68 42.9875 128.416 43.2647L128.304 43.1708C132.773 43.5399 137.263 42.6879 141.161 40.7319C145.06 38.7758 148.176 35.8105 150.086 32.2406C151.996 28.6707 152.606 24.6698 151.834 20.7838C151.062 16.8978 148.944 13.3158 145.77 10.5263C142.596 7.73691 138.52 5.8758 134.098 5.19702C129.676 4.51818 125.123 5.05461 121.061 6.73317C116.998 8.41168 113.624 11.1506 111.398 14.5764C109.172 18.0021 108.203 21.9479 108.623 25.8755L108.516 25.7764C108.832 29.0598 108.329 32.3643 107.042 35.4591C105.755 38.5539 103.714 41.3645 101.063 43.6947C98.4116 46.0242 95.2133 47.8179 91.6917 48.949C88.1695 50.0801 84.4095 50.5222 80.6732 50.2443L80.78 50.3434C77.6048 50.0624 74.3976 50.4049 71.3915 51.3463C68.3854 52.2871 65.6545 53.804 63.3969 55.7864C61.1394 57.7687 59.4115 60.1675 58.3379 62.8088C57.2649 65.45 56.8728 68.2674 57.1902 71.0582L57.0834 70.9644C57.3978 74.2473 56.893 77.551 55.6052 80.6452C54.3169 83.7389 52.2764 86.549 49.6256 88.8785C46.9746 91.208 43.7772 93.0011 40.2565 94.1333C36.7357 95.265 32.9764 95.7085 29.2406 95.4323L29.3474 95.5261C24.8781 95.157 20.3881 96.0088 16.4898 97.9651C12.5915 99.9214 9.4748 102.886 7.56478 106.456C5.6547 110.026 5.04422 114.027 5.81669 117.913C6.58915 121.799 8.70696 125.381 11.8811 128.17C15.0553 130.96 19.1314 132.821 23.5534 133.5C27.9755 134.178 32.5281 133.642 36.5905 131.964C40.6528 130.285 44.0271 127.547 46.2529 124.121C48.4791 120.695 49.4483 116.749 49.0283 112.821L49.141 112.915C48.8255 109.632 49.3296 106.328 50.6174 103.233C51.9045 100.139 53.9456 97.3291 56.5964 94.9991C59.2478 92.6696 62.4455 90.8759 65.9665 89.7448C69.4881 88.6132 73.2475 88.1701 76.9838 88.4474Z" fill="white"/>
<path id="Vector_3" d="M37.2301 77.9854C39.4782 75.9984 41.1995 73.5995 42.2709 70.9604C43.3424 68.3213 43.7377 65.5065 43.4285 62.7177L43.5412 62.8116C43.2256 59.5276 43.7296 56.2223 45.018 53.1271C46.3064 50.0318 48.3482 47.2212 51.0008 44.8912C53.6534 42.5613 56.8523 40.7682 60.375 39.6373C63.8978 38.5064 67.659 38.0649 71.3959 38.3437L71.2832 38.2498C75.7508 38.6177 80.2392 37.7655 84.1357 35.8095C88.0321 33.8536 91.1468 30.889 93.0562 27.3202C94.9649 23.7514 95.5747 19.752 94.8024 15.8674C94.0301 11.9829 91.9126 8.40223 88.7398 5.61381C85.567 2.82538 81.492 0.964905 77.0718 0.286122C72.6516 -0.392714 68.1003 0.143244 64.0395 1.82076C59.9782 3.49828 56.6049 6.23577 54.3794 9.65992C52.1533 13.0841 51.1835 17.0282 51.6022 20.9545L51.4955 20.8606C51.811 24.1438 51.3068 27.4479 50.0191 30.5423C48.7314 33.6367 46.691 36.4468 44.0398 38.7767C41.3887 41.1065 38.1909 42.8998 34.6697 44.0311C31.1485 45.1628 27.3887 45.6058 23.6527 45.3285L23.7595 45.4224C20.109 45.1346 16.4349 45.6616 13.0778 46.9538C9.72063 48.246 6.78896 50.2622 4.55448 52.8154C2.32 55.368 0.855021 58.3756 0.2952 61.5584C-0.264562 64.7418 0.0989837 67.9976 1.35215 71.024C2.60531 74.0509 4.70763 76.7505 7.46421 78.8731C10.2208 80.9962 13.5425 82.4729 17.1215 83.1672C20.7004 83.861 24.4208 83.75 27.9381 82.8446C31.4553 81.9386 34.6553 80.2675 37.2419 77.9854H37.2301Z" fill="white"/>
</g>
</svg>
