<svg width="233" height="173" viewBox="0 0 233 173" fill="none" xmlns="http://www.w3.org/2000/svg">
<path d="M77.936 93.24C75.248 93.24 73.216 92.504 71.84 91.032C70.464 89.528 69.776 87.528 69.776 85.032C69.776 83.624 69.984 81.912 70.4 79.896L73.376 66.168C73.44 65.912 73.584 65.208 73.808 64.056C74.064 62.904 74.192 61.656 74.192 60.312C74.192 59.544 74.032 58.968 73.712 58.584C73.424 58.2 73.024 58.008 72.512 58.008C71.552 58.008 70.432 58.472 69.152 59.4C67.872 60.296 66.528 61.688 65.12 63.576C64.672 64.184 64.176 64.488 63.632 64.488C63.184 64.488 62.784 64.28 62.432 63.864C62.112 63.416 61.952 62.92 61.952 62.376C61.952 61.384 62.4 60.264 63.296 59.016C66.56 54.536 70.384 52.296 74.768 52.296C76.72 52.296 78.24 52.888 79.328 54.072C80.448 55.256 81.008 57 81.008 59.304C81.008 60.936 80.896 62.44 80.672 63.816C80.448 65.192 80.064 67.064 79.52 69.432L77.552 78.216C77.488 78.504 77.376 79.016 77.216 79.752C77.056 80.488 76.928 81.192 76.832 81.864C76.736 82.504 76.688 83.144 76.688 83.784C76.688 84.808 76.976 85.624 77.552 86.232C78.128 86.84 78.944 87.144 80 87.144C81.92 87.144 83.856 86.12 85.808 84.072C87.792 82.024 89.616 78.728 91.28 74.184C92.976 69.608 94.288 63.768 95.216 56.664C95.44 55.032 95.76 53.896 96.176 53.256C96.624 52.616 97.472 52.296 98.72 52.296C99.84 52.296 100.672 52.632 101.216 53.304C101.76 53.976 102.032 55.064 102.032 56.568C102.032 57.432 101.92 58.568 101.696 59.976C101.504 61.384 101.2 63.352 100.784 65.88C99.92 70.776 99.232 75.272 98.72 79.368C98.464 81.224 98.336 82.6 98.336 83.496C98.336 84.808 98.624 85.816 99.2 86.52C99.808 87.192 100.608 87.528 101.6 87.528C102.656 87.528 103.68 87.176 104.672 86.472C105.696 85.768 106.896 84.6 108.272 82.968C108.656 82.52 109.088 82.296 109.568 82.296C109.984 82.296 110.304 82.488 110.528 82.872C110.784 83.256 110.912 83.784 110.912 84.456C110.912 85.704 110.608 86.696 110 87.432C108.336 89.448 106.688 90.92 105.056 91.848C103.424 92.776 101.712 93.24 99.92 93.24C97.264 93.24 95.232 92.568 93.824 91.224C92.416 89.848 91.712 88.072 91.712 85.896C91.712 84.68 91.968 82.312 92.48 78.792C90.88 83.496 88.848 87.08 86.384 89.544C83.952 92.008 81.136 93.24 77.936 93.24ZM110.415 93.24C109.199 93.24 108.335 92.6 107.823 91.32C107.343 90.04 107.103 87.992 107.103 85.176C107.103 81.016 107.695 77.064 108.879 73.32C109.167 72.392 109.631 71.72 110.271 71.304C110.943 70.856 111.871 70.632 113.055 70.632C113.695 70.632 114.143 70.712 114.399 70.872C114.655 71.032 114.783 71.336 114.783 71.784C114.783 72.296 114.543 73.448 114.063 75.24C113.743 76.52 113.487 77.64 113.295 78.6C113.103 79.56 112.943 80.744 112.815 82.152C113.871 79.4 115.055 77.16 116.367 75.432C117.679 73.704 118.959 72.472 120.207 71.736C121.487 71 122.655 70.632 123.711 70.632C125.791 70.632 126.831 71.672 126.831 73.752C126.831 75 126.479 77.256 125.775 80.52C125.167 83.304 124.863 85.144 124.863 86.04C124.863 87.32 125.327 87.96 126.255 87.96C126.895 87.96 127.647 87.576 128.511 86.808C129.407 86.008 130.591 84.728 132.063 82.968C132.447 82.52 132.879 82.296 133.359 82.296C133.775 82.296 134.095 82.488 134.319 82.872C134.575 83.256 134.703 83.784 134.703 84.456C134.703 85.736 134.399 86.728 133.791 87.432C132.415 89.128 130.927 90.52 129.327 91.608C127.759 92.696 125.967 93.24 123.951 93.24C122.319 93.24 121.087 92.776 120.255 91.848C119.423 90.888 119.007 89.512 119.007 87.72C119.007 86.824 119.231 85.224 119.679 82.92C120.095 80.904 120.303 79.512 120.303 78.744C120.303 78.232 120.127 77.976 119.775 77.976C119.359 77.976 118.767 78.52 117.999 79.608C117.263 80.664 116.495 82.072 115.695 83.832C114.927 85.592 114.303 87.448 113.823 89.4C113.471 90.904 113.055 91.928 112.575 92.472C112.127 92.984 111.407 93.24 110.415 93.24ZM137.108 67.464C135.764 67.464 134.756 67.16 134.084 66.552C133.412 65.912 133.076 65.032 133.076 63.912C133.076 62.792 133.508 61.864 134.372 61.128C135.268 60.36 136.372 59.976 137.684 59.976C138.868 59.976 139.828 60.264 140.564 60.84C141.3 61.416 141.668 62.232 141.668 63.288C141.668 64.568 141.252 65.592 140.42 66.36C139.588 67.096 138.484 67.464 137.108 67.464ZM136.724 93.24C134.644 93.24 133.124 92.504 132.164 91.032C131.236 89.56 130.772 87.608 130.772 85.176C130.772 83.736 130.948 81.896 131.3 79.656C131.684 77.384 132.164 75.272 132.74 73.32C133.028 72.296 133.412 71.592 133.892 71.208C134.372 70.824 135.14 70.632 136.196 70.632C137.828 70.632 138.644 71.176 138.644 72.264C138.644 73.064 138.34 74.92 137.732 77.832C136.964 81.352 136.58 83.736 136.58 84.984C136.58 85.944 136.708 86.68 136.964 87.192C137.22 87.704 137.652 87.96 138.26 87.96C138.836 87.96 139.556 87.56 140.42 86.76C141.284 85.96 142.436 84.696 143.876 82.968C144.26 82.52 144.692 82.296 145.172 82.296C145.588 82.296 145.908 82.488 146.132 82.872C146.388 83.256 146.516 83.784 146.516 84.456C146.516 85.736 146.212 86.728 145.604 87.432C142.436 91.304 139.476 93.24 136.724 93.24ZM180.696 53.16C181.688 53.352 182.424 53.688 182.904 54.168C183.416 54.648 183.672 55.208 183.672 55.848C183.672 56.904 183.368 57.672 182.76 58.152C182.184 58.632 181.256 58.824 179.976 58.728C177.096 58.504 174.84 58.36 173.208 58.296C171.608 58.2 169.496 58.136 166.872 58.104C165.688 63.992 164.6 69.912 163.608 75.864C163.256 78.04 162.888 80.568 162.504 83.448C162.12 86.296 161.864 88.6 161.736 90.36C161.672 91.288 161.288 92.008 160.584 92.52C159.88 93 159.032 93.24 158.04 93.24C156.984 93.24 156.168 92.984 155.592 92.472C155.016 91.96 154.728 91.288 154.728 90.456C154.728 89.688 154.84 88.424 155.064 86.664C155.32 84.872 155.608 83 155.928 81.048C156.28 79.096 156.552 77.4 156.744 75.96C157.096 73.528 157.496 71.112 157.944 68.712C158.392 66.312 158.84 64.04 159.288 61.896C159.384 61.416 159.496 60.872 159.624 60.264C159.752 59.624 159.896 58.92 160.056 58.152C156.92 58.248 154.456 58.504 152.664 58.92C150.872 59.336 149.592 59.928 148.824 60.696C148.088 61.432 147.72 62.392 147.72 63.576C147.72 64.664 148.04 65.704 148.68 66.696C148.808 66.92 148.872 67.16 148.872 67.416C148.872 68.024 148.504 68.6 147.768 69.144C147.064 69.656 146.328 69.912 145.56 69.912C145.016 69.912 144.568 69.752 144.216 69.432C143.576 68.888 143.048 68.12 142.632 67.128C142.216 66.104 142.008 64.952 142.008 63.672C142.008 60.952 142.888 58.776 144.648 57.144C146.44 55.48 149.144 54.264 152.76 53.496C156.408 52.728 161.08 52.344 166.776 52.344C170.296 52.344 173.096 52.408 175.176 52.536C177.288 52.664 179.128 52.872 180.696 53.16ZM177.458 93.24C175.474 93.24 173.89 92.52 172.706 91.08C171.522 89.64 170.93 87.752 170.93 85.416C170.93 82.856 171.522 80.44 172.706 78.168C173.89 75.864 175.458 74.024 177.41 72.648C179.394 71.24 181.49 70.536 183.698 70.536C184.402 70.536 184.866 70.68 185.09 70.968C185.346 71.224 185.554 71.704 185.714 72.408C186.386 72.28 187.09 72.216 187.826 72.216C189.394 72.216 190.178 72.776 190.178 73.896C190.178 74.568 189.938 76.168 189.458 78.696C188.722 82.376 188.354 84.936 188.354 86.376C188.354 86.856 188.466 87.24 188.69 87.528C188.946 87.816 189.266 87.96 189.65 87.96C190.258 87.96 190.994 87.576 191.858 86.808C192.722 86.008 193.89 84.728 195.362 82.968C195.746 82.52 196.178 82.296 196.658 82.296C197.074 82.296 197.394 82.488 197.618 82.872C197.874 83.256 198.002 83.784 198.002 84.456C198.002 85.736 197.698 86.728 197.09 87.432C195.778 89.064 194.386 90.44 192.914 91.56C191.442 92.68 190.018 93.24 188.642 93.24C187.586 93.24 186.61 92.888 185.714 92.184C184.85 91.448 184.194 90.456 183.746 89.208C182.082 91.896 179.986 93.24 177.458 93.24ZM179.186 88.392C179.89 88.392 180.562 87.976 181.202 87.144C181.842 86.312 182.306 85.208 182.594 83.832L184.37 75C183.026 75.032 181.778 75.544 180.626 76.536C179.506 77.496 178.61 78.776 177.938 80.376C177.266 81.976 176.93 83.672 176.93 85.464C176.93 86.456 177.122 87.192 177.506 87.672C177.922 88.152 178.482 88.392 179.186 88.392ZM212.293 82.296C212.709 82.296 213.029 82.488 213.253 82.872C213.509 83.256 213.637 83.784 213.637 84.456C213.637 85.736 213.333 86.728 212.725 87.432C211.349 89.128 209.845 90.52 208.213 91.608C206.613 92.696 204.789 93.24 202.741 93.24C199.925 93.24 197.829 91.96 196.453 89.4C195.109 86.84 194.437 83.528 194.437 79.464C194.437 75.56 194.933 71.112 195.925 66.12C196.949 61.128 198.437 56.84 200.389 53.256C202.373 49.672 204.725 47.88 207.445 47.88C208.981 47.88 210.181 48.6 211.045 50.04C211.941 51.448 212.389 53.48 212.389 56.136C212.389 59.944 211.333 64.36 209.221 69.384C207.109 74.408 204.245 79.384 200.629 84.312C200.853 85.624 201.221 86.568 201.733 87.144C202.245 87.688 202.917 87.96 203.749 87.96C205.061 87.96 206.213 87.592 207.205 86.856C208.197 86.088 209.461 84.792 210.997 82.968C211.381 82.52 211.813 82.296 212.293 82.296ZM206.389 52.632C205.653 52.632 204.821 53.96 203.893 56.616C202.965 59.272 202.149 62.568 201.445 66.504C200.741 70.44 200.357 74.216 200.293 77.832C202.565 74.088 204.373 70.344 205.717 66.6C207.061 62.824 207.733 59.384 207.733 56.28C207.733 53.848 207.285 52.632 206.389 52.632ZM230.157 88.008C231.469 88.264 232.125 88.984 232.125 90.168C232.125 90.968 231.757 91.688 231.021 92.328C230.317 92.936 229.293 93.24 227.949 93.24C225.645 93.24 223.757 92.536 222.285 91.128C220.845 89.688 220.125 87.816 220.125 85.512C220.125 84.264 220.765 83.368 222.045 82.824C223.453 82.216 224.461 81.576 225.069 80.904C225.677 80.2 225.981 79.352 225.981 78.36C225.981 77.784 225.853 77.352 225.597 77.064C225.373 76.776 225.085 76.632 224.733 76.632C223.869 76.632 222.909 77.256 221.853 78.504C220.829 79.752 219.869 81.368 218.973 83.352C218.077 85.304 217.373 87.32 216.861 89.4C216.509 90.904 216.093 91.928 215.613 92.472C215.165 92.984 214.445 93.24 213.453 93.24C212.461 93.24 211.725 92.888 211.245 92.184C210.797 91.448 210.493 90.328 210.333 88.824C210.173 87.32 210.093 85.112 210.093 82.2C210.093 77.272 210.589 72.136 211.581 66.792C212.605 61.448 214.093 56.968 216.045 53.352C218.029 49.704 220.397 47.88 223.149 47.88C224.621 47.88 225.805 48.52 226.701 49.8C227.629 51.048 228.093 52.68 228.093 54.696C228.093 57.928 227.149 61.288 225.261 64.776C223.373 68.232 220.301 72.28 216.045 76.92C215.949 78.584 215.901 80.296 215.901 82.056C217.437 78.056 219.197 75.16 221.181 73.368C223.165 71.544 225.021 70.632 226.749 70.632C228.349 70.632 229.629 71.176 230.589 72.264C231.581 73.352 232.077 74.696 232.077 76.296C232.077 78.056 231.629 79.672 230.733 81.144C229.837 82.616 228.301 83.928 226.125 85.08C226.317 86.04 226.701 86.712 227.277 87.096C227.885 87.448 228.845 87.752 230.157 88.008ZM222.141 52.632C221.565 52.632 220.925 53.464 220.221 55.128C219.517 56.76 218.829 58.984 218.157 61.8C217.517 64.584 216.989 67.624 216.573 70.92C218.557 68.584 220.189 66.04 221.469 63.288C222.781 60.536 223.437 58.04 223.437 55.8C223.437 54.776 223.325 53.992 223.101 53.448C222.877 52.904 222.557 52.632 222.141 52.632Z" fill="#333365"/>
<path d="M66.328 119V107.08H70.536C71.3253 107.08 72.0187 107.229 72.616 107.528C73.2133 107.827 73.6773 108.253 74.008 108.808C74.3493 109.363 74.52 110.013 74.52 110.76C74.52 111.507 74.3493 112.157 74.008 112.712C73.6773 113.256 73.2133 113.683 72.616 113.992C72.0293 114.291 71.336 114.44 70.536 114.44H67.896V119H66.328ZM67.896 113H70.584C71.064 113 71.48 112.909 71.832 112.728C72.184 112.547 72.456 112.285 72.648 111.944C72.84 111.603 72.936 111.208 72.936 110.76C72.936 110.301 72.84 109.907 72.648 109.576C72.456 109.235 72.184 108.973 71.832 108.792C71.48 108.611 71.064 108.52 70.584 108.52H67.896V113ZM80.12 119.192C79.288 119.192 78.5467 118.995 77.896 118.6C77.2453 118.205 76.7333 117.667 76.36 116.984C75.9867 116.291 75.8 115.517 75.8 114.664C75.8 113.8 75.9813 113.032 76.344 112.36C76.7173 111.688 77.2187 111.16 77.848 110.776C78.488 110.381 79.2027 110.184 79.992 110.184C80.632 110.184 81.1973 110.301 81.688 110.536C82.1893 110.76 82.6107 111.069 82.952 111.464C83.304 111.848 83.5707 112.291 83.752 112.792C83.944 113.283 84.04 113.795 84.04 114.328C84.04 114.445 84.0293 114.579 84.008 114.728C83.9973 114.867 83.9813 115 83.96 115.128H76.888V113.848H83.096L82.392 114.424C82.488 113.869 82.4347 113.373 82.232 112.936C82.0293 112.499 81.7307 112.152 81.336 111.896C80.9413 111.64 80.4933 111.512 79.992 111.512C79.4907 111.512 79.032 111.64 78.616 111.896C78.2 112.152 77.8747 112.52 77.64 113C77.416 113.469 77.3253 114.029 77.368 114.68C77.3253 115.309 77.4213 115.864 77.656 116.344C77.9013 116.813 78.2427 117.181 78.68 117.448C79.128 117.704 79.6133 117.832 80.136 117.832C80.712 117.832 81.1973 117.699 81.592 117.432C81.9867 117.165 82.3067 116.824 82.552 116.408L83.8 117.048C83.6293 117.443 83.3627 117.805 83 118.136C82.648 118.456 82.2267 118.712 81.736 118.904C81.256 119.096 80.7173 119.192 80.12 119.192ZM85.9801 119V106.888H87.4681V119H85.9801ZM92.305 119.192C91.7397 119.192 91.2383 119.091 90.801 118.888C90.3743 118.675 90.0383 118.387 89.793 118.024C89.5477 117.651 89.425 117.224 89.425 116.744C89.425 116.285 89.521 115.875 89.713 115.512C89.9157 115.139 90.225 114.824 90.641 114.568C91.0677 114.312 91.601 114.131 92.241 114.024L95.441 113.496V114.744L92.577 115.224C92.0223 115.32 91.617 115.496 91.361 115.752C91.1157 116.008 90.993 116.323 90.993 116.696C90.993 117.048 91.1317 117.341 91.409 117.576C91.697 117.811 92.0543 117.928 92.481 117.928C93.025 117.928 93.4943 117.816 93.889 117.592C94.2943 117.357 94.609 117.043 94.833 116.648C95.0677 116.253 95.185 115.816 95.185 115.336V113.144C95.185 112.675 95.009 112.296 94.657 112.008C94.3157 111.709 93.8623 111.56 93.297 111.56C92.8063 111.56 92.369 111.688 91.985 111.944C91.6117 112.189 91.3343 112.52 91.153 112.936L89.857 112.264C90.017 111.869 90.273 111.517 90.625 111.208C90.977 110.888 91.3877 110.637 91.857 110.456C92.3263 110.275 92.817 110.184 93.329 110.184C93.9903 110.184 94.5717 110.312 95.073 110.568C95.5743 110.813 95.9637 111.16 96.241 111.608C96.529 112.045 96.673 112.557 96.673 113.144V119H95.217V117.368L95.489 117.464C95.3077 117.805 95.0623 118.104 94.753 118.36C94.4437 118.616 94.081 118.819 93.665 118.968C93.249 119.117 92.7957 119.192 92.305 119.192ZM99.4441 122.52C99.2521 122.52 99.0601 122.504 98.8681 122.472C98.6761 122.451 98.4948 122.403 98.3241 122.328V121C98.4415 121.011 98.5855 121.032 98.7561 121.064C98.9375 121.096 99.1135 121.112 99.2841 121.112C99.7855 121.112 100.164 121 100.42 120.776C100.687 120.552 100.937 120.173 101.172 119.64L101.716 118.344L101.684 119.64L98.0041 110.376H99.6201L102.484 117.736H102.004L104.852 110.376H106.5L102.612 120.024C102.431 120.483 102.196 120.904 101.908 121.288C101.631 121.672 101.289 121.971 100.884 122.184C100.479 122.408 99.9988 122.52 99.4441 122.52ZM110.039 119.192C109.474 119.192 108.973 119.091 108.535 118.888C108.109 118.675 107.773 118.387 107.527 118.024C107.282 117.651 107.159 117.224 107.159 116.744C107.159 116.285 107.255 115.875 107.447 115.512C107.65 115.139 107.959 114.824 108.375 114.568C108.802 114.312 109.335 114.131 109.975 114.024L113.175 113.496V114.744L110.311 115.224C109.757 115.32 109.351 115.496 109.095 115.752C108.85 116.008 108.727 116.323 108.727 116.696C108.727 117.048 108.866 117.341 109.143 117.576C109.431 117.811 109.789 117.928 110.215 117.928C110.759 117.928 111.229 117.816 111.623 117.592C112.029 117.357 112.343 117.043 112.567 116.648C112.802 116.253 112.919 115.816 112.919 115.336V113.144C112.919 112.675 112.743 112.296 112.391 112.008C112.05 111.709 111.597 111.56 111.031 111.56C110.541 111.56 110.103 111.688 109.719 111.944C109.346 112.189 109.069 112.52 108.887 112.936L107.591 112.264C107.751 111.869 108.007 111.517 108.359 111.208C108.711 110.888 109.122 110.637 109.591 110.456C110.061 110.275 110.551 110.184 111.063 110.184C111.725 110.184 112.306 110.312 112.807 110.568C113.309 110.813 113.698 111.16 113.975 111.608C114.263 112.045 114.407 112.557 114.407 113.144V119H112.951V117.368L113.223 117.464C113.042 117.805 112.797 118.104 112.487 118.36C112.178 118.616 111.815 118.819 111.399 118.968C110.983 119.117 110.53 119.192 110.039 119.192ZM116.715 119V110.376H118.171V112.056L117.931 111.912C118.144 111.368 118.485 110.947 118.955 110.648C119.435 110.339 119.995 110.184 120.635 110.184C121.253 110.184 121.803 110.323 122.283 110.6C122.773 110.877 123.157 111.261 123.435 111.752C123.723 112.243 123.867 112.797 123.867 113.416V119H122.363V113.896C122.363 113.416 122.277 113.011 122.107 112.68C121.936 112.349 121.691 112.093 121.371 111.912C121.061 111.72 120.704 111.624 120.299 111.624C119.893 111.624 119.531 111.72 119.211 111.912C118.901 112.093 118.656 112.355 118.475 112.696C118.293 113.027 118.203 113.427 118.203 113.896V119H116.715ZM128.524 119.192C127.958 119.192 127.457 119.091 127.02 118.888C126.593 118.675 126.257 118.387 126.012 118.024C125.766 117.651 125.644 117.224 125.644 116.744C125.644 116.285 125.74 115.875 125.932 115.512C126.134 115.139 126.444 114.824 126.86 114.568C127.286 114.312 127.82 114.131 128.46 114.024L131.66 113.496V114.744L128.796 115.224C128.241 115.32 127.836 115.496 127.58 115.752C127.334 116.008 127.212 116.323 127.212 116.696C127.212 117.048 127.35 117.341 127.628 117.576C127.916 117.811 128.273 117.928 128.7 117.928C129.244 117.928 129.713 117.816 130.108 117.592C130.513 117.357 130.828 117.043 131.052 116.648C131.286 116.253 131.404 115.816 131.404 115.336V113.144C131.404 112.675 131.228 112.296 130.876 112.008C130.534 111.709 130.081 111.56 129.516 111.56C129.025 111.56 128.588 111.688 128.204 111.944C127.83 112.189 127.553 112.52 127.372 112.936L126.076 112.264C126.236 111.869 126.492 111.517 126.844 111.208C127.196 110.888 127.606 110.637 128.076 110.456C128.545 110.275 129.036 110.184 129.548 110.184C130.209 110.184 130.79 110.312 131.292 110.568C131.793 110.813 132.182 111.16 132.46 111.608C132.748 112.045 132.892 112.557 132.892 113.144V119H131.436V117.368L131.708 117.464C131.526 117.805 131.281 118.104 130.972 118.36C130.662 118.616 130.3 118.819 129.884 118.968C129.468 119.117 129.014 119.192 128.524 119.192ZM135.199 119V110.376H136.655V112.056L136.415 111.912C136.628 111.368 136.97 110.947 137.439 110.648C137.919 110.339 138.479 110.184 139.119 110.184C139.738 110.184 140.287 110.323 140.767 110.6C141.258 110.877 141.642 111.261 141.919 111.752C142.207 112.243 142.351 112.797 142.351 113.416V119H140.847V113.896C140.847 113.416 140.762 113.011 140.591 112.68C140.42 112.349 140.175 112.093 139.855 111.912C139.546 111.72 139.188 111.624 138.783 111.624C138.378 111.624 138.015 111.72 137.695 111.912C137.386 112.093 137.14 112.355 136.959 112.696C136.778 113.027 136.687 113.427 136.687 113.896V119H135.199ZM147.422 119V107.08H148.862L153.326 113.432H152.59L157.022 107.08H158.462V119H156.878V109.064L157.438 109.24L153.006 115.48H152.878L148.494 109.24L148.99 109.064V119H147.422ZM163.461 119.192C162.896 119.192 162.395 119.091 161.957 118.888C161.531 118.675 161.195 118.387 160.949 118.024C160.704 117.651 160.581 117.224 160.581 116.744C160.581 116.285 160.677 115.875 160.869 115.512C161.072 115.139 161.381 114.824 161.797 114.568C162.224 114.312 162.757 114.131 163.397 114.024L166.597 113.496V114.744L163.733 115.224C163.179 115.32 162.773 115.496 162.517 115.752C162.272 116.008 162.149 116.323 162.149 116.696C162.149 117.048 162.288 117.341 162.565 117.576C162.853 117.811 163.211 117.928 163.637 117.928C164.181 117.928 164.651 117.816 165.045 117.592C165.451 117.357 165.765 117.043 165.989 116.648C166.224 116.253 166.341 115.816 166.341 115.336V113.144C166.341 112.675 166.165 112.296 165.813 112.008C165.472 111.709 165.019 111.56 164.453 111.56C163.963 111.56 163.525 111.688 163.141 111.944C162.768 112.189 162.491 112.52 162.309 112.936L161.013 112.264C161.173 111.869 161.429 111.517 161.781 111.208C162.133 110.888 162.544 110.637 163.013 110.456C163.483 110.275 163.973 110.184 164.485 110.184C165.147 110.184 165.728 110.312 166.229 110.568C166.731 110.813 167.12 111.16 167.397 111.608C167.685 112.045 167.829 112.557 167.829 113.144V119H166.373V117.368L166.645 117.464C166.464 117.805 166.219 118.104 165.909 118.36C165.6 118.616 165.237 118.819 164.821 118.968C164.405 119.117 163.952 119.192 163.461 119.192ZM170.136 119V106.888H171.624V112.056L171.352 111.912C171.566 111.368 171.907 110.947 172.376 110.648C172.856 110.339 173.416 110.184 174.056 110.184C174.675 110.184 175.224 110.323 175.704 110.6C176.195 110.877 176.579 111.261 176.856 111.752C177.144 112.243 177.288 112.797 177.288 113.416V119H175.784V113.896C175.784 113.416 175.694 113.011 175.512 112.68C175.342 112.349 175.102 112.093 174.792 111.912C174.483 111.72 174.126 111.624 173.72 111.624C173.326 111.624 172.968 111.72 172.648 111.912C172.328 112.093 172.078 112.355 171.896 112.696C171.715 113.027 171.624 113.427 171.624 113.896V119H170.136ZM181.946 119.192C181.38 119.192 180.879 119.091 180.442 118.888C180.015 118.675 179.679 118.387 179.434 118.024C179.188 117.651 179.066 117.224 179.066 116.744C179.066 116.285 179.162 115.875 179.354 115.512C179.556 115.139 179.866 114.824 180.282 114.568C180.708 114.312 181.242 114.131 181.882 114.024L185.082 113.496V114.744L182.218 115.224C181.663 115.32 181.258 115.496 181.002 115.752C180.756 116.008 180.634 116.323 180.634 116.696C180.634 117.048 180.772 117.341 181.05 117.576C181.338 117.811 181.695 117.928 182.122 117.928C182.666 117.928 183.135 117.816 183.53 117.592C183.935 117.357 184.25 117.043 184.474 116.648C184.708 116.253 184.826 115.816 184.826 115.336V113.144C184.826 112.675 184.65 112.296 184.298 112.008C183.956 111.709 183.503 111.56 182.938 111.56C182.447 111.56 182.01 111.688 181.626 111.944C181.252 112.189 180.975 112.52 180.794 112.936L179.498 112.264C179.658 111.869 179.914 111.517 180.266 111.208C180.618 110.888 181.028 110.637 181.498 110.456C181.967 110.275 182.458 110.184 182.97 110.184C183.631 110.184 184.212 110.312 184.714 110.568C185.215 110.813 185.604 111.16 185.882 111.608C186.17 112.045 186.314 112.557 186.314 113.144V119H184.858V117.368L185.13 117.464C184.948 117.805 184.703 118.104 184.394 118.36C184.084 118.616 183.722 118.819 183.306 118.968C182.89 119.117 182.436 119.192 181.946 119.192ZM191.709 119.192C190.845 119.192 190.093 118.979 189.453 118.552C188.813 118.125 188.359 117.549 188.093 116.824L189.277 116.248C189.522 116.76 189.858 117.165 190.285 117.464C190.711 117.763 191.186 117.912 191.709 117.912C192.178 117.912 192.567 117.8 192.877 117.576C193.186 117.352 193.341 117.059 193.341 116.696C193.341 116.44 193.266 116.237 193.117 116.088C192.978 115.928 192.807 115.805 192.605 115.72C192.402 115.624 192.215 115.555 192.045 115.512L190.749 115.144C189.97 114.92 189.399 114.6 189.037 114.184C188.685 113.768 188.509 113.283 188.509 112.728C188.509 112.216 188.637 111.773 188.893 111.4C189.159 111.016 189.517 110.717 189.965 110.504C190.423 110.291 190.935 110.184 191.501 110.184C192.258 110.184 192.935 110.376 193.533 110.76C194.141 111.144 194.573 111.683 194.829 112.376L193.613 112.936C193.421 112.488 193.133 112.136 192.749 111.88C192.365 111.613 191.933 111.48 191.453 111.48C191.015 111.48 190.669 111.592 190.413 111.816C190.157 112.029 190.029 112.301 190.029 112.632C190.029 112.877 190.093 113.08 190.221 113.24C190.349 113.389 190.503 113.507 190.685 113.592C190.866 113.667 191.042 113.731 191.213 113.784L192.621 114.2C193.325 114.403 193.869 114.717 194.253 115.144C194.647 115.571 194.845 116.083 194.845 116.68C194.845 117.16 194.711 117.592 194.445 117.976C194.178 118.36 193.81 118.659 193.341 118.872C192.871 119.085 192.327 119.192 191.709 119.192ZM196.793 119V110.376H198.281V119H196.793ZM196.793 109V107.08H198.281V109H196.793ZM203.678 119.192C202.814 119.192 202.062 118.979 201.422 118.552C200.782 118.125 200.328 117.549 200.062 116.824L201.246 116.248C201.491 116.76 201.827 117.165 202.254 117.464C202.68 117.763 203.155 117.912 203.678 117.912C204.147 117.912 204.536 117.8 204.846 117.576C205.155 117.352 205.31 117.059 205.31 116.696C205.31 116.44 205.235 116.237 205.086 116.088C204.947 115.928 204.776 115.805 204.574 115.72C204.371 115.624 204.184 115.555 204.014 115.512L202.718 115.144C201.939 114.92 201.368 114.6 201.006 114.184C200.654 113.768 200.478 113.283 200.478 112.728C200.478 112.216 200.606 111.773 200.862 111.4C201.128 111.016 201.486 110.717 201.934 110.504C202.392 110.291 202.904 110.184 203.47 110.184C204.227 110.184 204.904 110.376 205.502 110.76C206.11 111.144 206.542 111.683 206.798 112.376L205.582 112.936C205.39 112.488 205.102 112.136 204.718 111.88C204.334 111.613 203.902 111.48 203.422 111.48C202.984 111.48 202.638 111.592 202.382 111.816C202.126 112.029 201.998 112.301 201.998 112.632C201.998 112.877 202.062 113.08 202.19 113.24C202.318 113.389 202.472 113.507 202.654 113.592C202.835 113.667 203.011 113.731 203.182 113.784L204.59 114.2C205.294 114.403 205.838 114.717 206.222 115.144C206.616 115.571 206.814 116.083 206.814 116.68C206.814 117.16 206.68 117.592 206.414 117.976C206.147 118.36 205.779 118.659 205.31 118.872C204.84 119.085 204.296 119.192 203.678 119.192ZM210.589 119L207.629 110.376H209.277L211.629 117.592L211.053 117.576L213.357 110.376H214.765L217.069 117.576L216.493 117.592L218.861 110.376H220.493L217.533 119H216.109L213.837 111.8H214.285L212.013 119H210.589ZM224.039 119.192C223.474 119.192 222.973 119.091 222.535 118.888C222.109 118.675 221.773 118.387 221.527 118.024C221.282 117.651 221.159 117.224 221.159 116.744C221.159 116.285 221.255 115.875 221.447 115.512C221.65 115.139 221.959 114.824 222.375 114.568C222.802 114.312 223.335 114.131 223.975 114.024L227.175 113.496V114.744L224.311 115.224C223.757 115.32 223.351 115.496 223.095 115.752C222.85 116.008 222.727 116.323 222.727 116.696C222.727 117.048 222.866 117.341 223.143 117.576C223.431 117.811 223.789 117.928 224.215 117.928C224.759 117.928 225.229 117.816 225.623 117.592C226.029 117.357 226.343 117.043 226.567 116.648C226.802 116.253 226.919 115.816 226.919 115.336V113.144C226.919 112.675 226.743 112.296 226.391 112.008C226.05 111.709 225.597 111.56 225.031 111.56C224.541 111.56 224.103 111.688 223.719 111.944C223.346 112.189 223.069 112.52 222.887 112.936L221.591 112.264C221.751 111.869 222.007 111.517 222.359 111.208C222.711 110.888 223.122 110.637 223.591 110.456C224.061 110.275 224.551 110.184 225.063 110.184C225.725 110.184 226.306 110.312 226.807 110.568C227.309 110.813 227.698 111.16 227.975 111.608C228.263 112.045 228.407 112.557 228.407 113.144V119H226.951V117.368L227.223 117.464C227.042 117.805 226.797 118.104 226.487 118.36C226.178 118.616 225.815 118.819 225.399 118.968C224.983 119.117 224.53 119.192 224.039 119.192Z" fill="#333365"/>
<path d="M133.616 162.163C119.933 169.45 104.509 173.183 88.8665 172.993C73.224 172.804 57.9031 168.699 44.4146 161.084C30.926 153.468 19.7357 142.605 11.9473 129.566C4.15877 116.526 0.0410995 101.761 0.000305999 86.7256C-0.0404875 71.6903 3.99701 56.9045 11.7146 43.8262C19.4322 30.748 30.5634 19.829 44.0105 12.146C57.4575 4.46304 72.7559 0.281493 88.3971 0.0137193C104.038 -0.254054 119.482 3.4012 133.205 10.619L119.11 35.3738C109.864 30.5107 99.4586 28.0479 88.92 28.2283C78.3815 28.4088 68.0739 31.2261 59.0137 36.4027C49.9536 41.5792 42.4537 48.9361 37.2538 57.7478C32.054 66.5595 29.3336 76.5217 29.3611 86.652C29.3886 96.7822 32.163 106.731 37.4106 115.516C42.6582 124.302 50.1979 131.621 59.286 136.752C68.3741 141.883 78.6969 144.649 89.2363 144.776C99.7756 144.904 110.168 142.389 119.387 137.48L133.616 162.163Z" fill="#333365"/>
</svg>
