<svg width="427" height="438" viewBox="0 0 427 438" fill="none" xmlns="http://www.w3.org/2000/svg">
<path fill-rule="evenodd" clip-rule="evenodd" d="M311.369 324.017L311.552 324.061L311.915 324.152C317.802 325.66 323.539 327.787 329.007 330.487C332.067 331.999 335.253 333.737 338.64 333.47C339.61 333.394 340.567 333.152 341.54 333.141C344.837 333.104 347.62 335.658 350.843 336.373C353.638 336.993 356.522 336.188 359.377 336.021C362.232 335.855 365.533 336.628 366.855 339.229C367.039 339.591 367.179 340.005 367.092 340.403C366.975 340.939 366.502 341.276 366.007 341.53L365.908 341.58L365.698 341.679C361.897 343.426 357.839 345.213 353.721 344.7L353.434 344.66L353.005 344.603C349.146 344.155 345.252 345.443 341.355 345.331C333.312 345.1 325.112 344.205 317.383 342.532L316.557 342.349L316.14 342.257C302.888 339.353 296.223 341.458 290.029 341.619L289.831 341.624L289.445 341.629C287.059 341.641 279.139 341.591 276.307 342.353C274.879 342.737 273.93 340.517 274.684 339.215C275.407 337.964 276.859 337.436 278.185 336.893L278.35 336.825L278.483 336.769C279.768 336.215 281.108 335.331 281.356 333.958L281.378 333.815L281.399 333.679C281.708 331.937 283.735 331.163 285.474 330.766L285.614 330.735L286.612 330.518C289.281 329.949 292.002 329.478 294.684 329.905C296.203 330.147 302.002 326.42 303.742 324.885C305.759 323.105 308.733 323.393 311.369 324.017ZM333.545 208.904L333.329 208.977C331.512 209.513 329.776 210.331 328.209 211.415C325.53 213.267 323.273 215.877 320.222 216.967C318.113 217.72 315.737 217.656 313.67 216.789C314.385 218.384 316.374 218.941 318.077 218.759C323.051 218.23 326.441 213.427 330.912 211.129C331.899 210.622 332.937 210.242 334.004 209.976C334.449 211.011 334.892 212.057 335.334 213.111L335.331 213.123C334.991 213.38 334.682 213.679 334.415 214.02C333.39 215.331 333.135 217.32 334.048 218.716C334.965 220.117 336.642 220.545 338.351 220.492L338.351 220.486L338.969 222.04C339.996 224.638 341.016 227.281 342.027 229.97L341.945 230.016C341.7 230.142 341.455 230.271 341.212 230.401C334.57 233.963 328.551 238.937 321.359 241.105C320.024 241.507 318.619 241.81 317.248 241.573C315.876 241.335 314.537 240.459 314.072 239.114C313.557 239.151 313.507 239.93 313.726 240.409C314.951 243.089 318.673 243.075 321.443 242.247C328.846 240.035 335.14 235.12 341.96 231.411L342.459 231.141L343.246 233.291C377.491 329.339 285.112 322.229 258.565 315.177C219.204 304.721 102.291 343.761 76.6659 315.177C66.0062 303.287 60.6881 287.636 59.7597 270.129C67.5473 266.822 74.3229 261.033 82.2624 257.97C87.248 256.047 92.6404 255.242 97.9537 255.627C100.619 255.821 103.344 256.342 105.584 257.836C107.823 259.331 109.486 261.972 109.237 264.701C109.064 266.602 108.023 268.294 106.927 269.836C106.166 270.907 105.357 271.954 104.374 272.814C102.501 274.453 100.066 275.33 97.6145 275.567C95.0926 275.811 92.4138 275.36 90.3941 273.792C88.3743 272.224 87.1917 269.39 87.9772 266.92C88.2961 265.917 88.9055 265.031 89.623 264.276C91.0881 262.732 93.1724 261.661 95.2546 261.94C97.3367 262.22 99.2367 264.149 99.0721 266.296C98.9076 268.443 96.2043 270.054 94.4916 268.808C94.7587 267.864 93.4049 266.979 92.6837 267.625C92.0548 268.189 92.2658 269.324 92.9055 269.875C93.5452 270.426 94.4382 270.53 95.2733 270.536C96.6339 270.546 98.0642 270.33 99.1477 269.486C101.616 267.563 100.813 263.085 98.1427 261.471C95.472 259.857 91.9156 260.668 89.4478 262.592C88.2076 263.559 87.1387 264.817 86.6222 266.325C85.5474 269.463 87.1864 273.116 89.8748 274.975C92.5631 276.834 96.0347 277.146 99.2354 276.616C101.052 276.315 102.86 275.748 104.37 274.669C105.862 273.603 106.993 272.092 108.036 270.564C109.413 268.547 110.727 266.309 110.751 263.846C110.778 261.088 109.109 258.514 106.89 256.956C104.67 255.398 101.967 254.728 99.2929 254.429C91.2474 253.529 83.0752 255.755 75.903 259.601C70.4155 262.544 65.3535 266.45 59.7046 268.941C59.1304 255.146 61.2443 240.235 65.5859 225.127L65.9332 225.054C71.2966 223.908 76.7645 223.278 82.2421 223.175C85.8764 223.107 89.5586 223.277 93.0447 224.333C94.5082 224.777 95.9456 225.377 97.4659 225.512C100.382 225.772 103.351 224.296 106.183 225.058C107.611 225.442 108.56 223.222 107.806 221.919C107.053 220.617 105.509 220.098 104.14 219.53C102.771 218.961 101.296 218.022 101.112 216.519C100.881 214.633 98.6886 213.836 96.8761 213.44L96.2113 213.295C93.4361 212.695 90.6 212.165 87.8064 212.61C86.2874 212.852 84.6919 213.372 83.2622 212.792C81.1285 211.928 80.4877 209.125 78.7485 207.59C76.9554 206.008 74.4075 206.059 72.0127 206.528C81.1543 183.83 94.8984 161.536 111.687 142.757L111.697 142.768C111.793 142.78 111.889 142.792 111.986 142.803C118.322 143.541 124.816 142.828 130.857 140.73C135.176 139.231 139.859 141.304 143.783 143.686C147.706 146.069 151.694 148.9 156.251 149.038C159.515 149.136 162.636 147.823 165.788 146.949C179.197 143.229 193.294 147.414 207 149.733C211.22 150.448 215.97 150.858 219.37 148.196C218.342 145.891 215.883 144.558 213.443 144.156C211.003 143.753 208.514 144.112 206.048 144.275C197.443 144.846 188.696 142.975 181.032 138.923C176.824 136.698 171.837 137.032 167.131 136.522C162.424 136.012 157.192 134.039 155.55 129.485C154.1 125.468 150.005 122.86 145.848 122.447C141.691 122.035 137.535 123.526 133.961 125.743C130.387 127.96 127.29 130.881 124.108 133.656C122.939 134.676 121.717 135.7 120.258 136.188C119.434 136.464 118.573 136.557 117.705 136.604L117.413 136.612C176.645 75.6521 268.967 59.1891 333.545 208.904ZM335.79 214.202C335.896 214.458 336.004 214.717 336.112 214.978L337.886 219.331C336.886 219.274 335.933 218.961 335.328 218.174C334.461 217.045 334.739 215.275 335.732 214.259L335.79 214.202ZM100.986 174.343L100.656 174.522C100.15 174.802 99.6629 175.091 98.9557 175.529L97.2826 176.573C95.0877 177.929 93.8928 178.536 92.3813 178.992C91.714 179.193 91.2296 179.261 90.7864 179.184C90.2949 179.099 89.8826 178.795 89.7507 178.413L89.635 178.078L89.2896 178.103C88.6648 178.148 88.5326 178.842 88.7577 179.334C89.3515 180.634 90.9826 180.894 92.6737 180.389C94.3905 179.876 95.7266 179.209 98.162 177.738L99.7223 176.786C101.74 175.561 102.8 174.997 104.139 174.481C106.26 173.663 108.553 173.32 110.813 173.484C112.135 173.58 113.138 173.845 113.935 174.376C114.847 174.985 115.415 176 115.329 176.945C115.273 177.556 114.987 178.138 114.403 178.96C114.008 179.517 113.703 179.882 113.359 180.183C112.653 180.8 111.7 181.176 110.654 181.278C109.553 181.384 108.536 181.155 107.812 180.594C107.035 179.99 106.646 178.942 106.913 178.104C107.019 177.769 107.228 177.442 107.526 177.128C108.128 176.494 108.907 176.15 109.605 176.244C110.324 176.34 110.93 177.005 110.88 177.65L110.871 177.722C110.786 178.202 110.244 178.566 109.825 178.499L109.781 178.489L109.78 178.479C109.632 177.839 108.781 177.43 108.239 177.916C107.745 178.359 107.85 179.186 108.343 179.61C108.687 179.906 109.105 180.005 109.669 180.009C110.467 180.015 111.125 179.858 111.643 179.454C112.968 178.421 112.627 176.06 111.159 175.172C109.886 174.403 108.151 174.677 106.848 175.694C106.19 176.206 105.7 176.834 105.457 177.544C104.932 179.076 105.66 180.907 107.055 181.871C108.251 182.698 109.823 182.937 111.478 182.663C112.433 182.505 113.243 182.211 113.913 181.733C114.531 181.292 115.006 180.736 115.629 179.822C116.478 178.579 116.89 177.664 116.9 176.619C116.912 175.305 116.162 174.022 115.012 173.214C114.064 172.549 112.905 172.189 111.48 172.03C108.059 171.647 104.424 172.499 100.986 174.343Z" fill="#333365"/>
<path fill-rule="evenodd" clip-rule="evenodd" d="M66.9811 260.138C67.4459 261.483 68.7846 262.36 70.1564 262.597C71.5282 262.834 72.9333 262.531 74.268 262.129C79.0336 260.692 83.2845 258.023 87.5431 255.35L87.5431 255.35L87.5432 255.35L87.5432 255.35C89.7109 253.989 91.8806 252.627 94.1212 251.425C101.293 247.579 109.466 245.353 117.511 246.253C120.185 246.552 122.889 247.222 125.108 248.78C127.327 250.338 128.996 252.912 128.969 255.67C128.945 258.133 127.631 260.371 126.254 262.388C125.211 263.916 124.081 265.427 122.588 266.493C121.078 267.572 119.27 268.139 117.454 268.44C114.253 268.97 110.781 268.658 108.093 266.799C105.405 264.94 103.766 261.287 104.84 258.149C105.357 256.641 106.426 255.383 107.666 254.416C110.134 252.492 113.69 251.681 116.361 253.295C119.032 254.909 119.834 259.387 117.366 261.31C116.282 262.154 114.852 262.37 113.492 262.36C112.656 262.354 111.763 262.25 111.124 261.699C110.484 261.148 110.273 260.013 110.902 259.449C111.623 258.803 112.977 259.688 112.71 260.632C114.422 261.878 117.126 260.267 117.29 258.12C117.455 255.973 115.555 254.044 113.473 253.764C111.391 253.485 109.306 254.556 107.841 256.1C107.124 256.855 106.514 257.741 106.195 258.744C105.41 261.214 106.593 264.048 108.612 265.616C110.632 267.184 113.311 267.635 115.833 267.391C118.285 267.154 120.719 266.277 122.593 264.638C123.575 263.778 124.385 262.731 125.145 261.66C126.242 260.118 127.283 258.426 127.456 256.525C127.704 253.796 126.041 251.155 123.802 249.66C121.562 248.166 118.837 247.645 116.172 247.451C110.859 247.066 105.466 247.871 100.481 249.794C96.3052 251.405 92.4518 253.77 88.604 256.131C84.0231 258.942 79.4502 261.748 74.3515 263.271C71.5821 264.099 67.8594 264.113 66.6353 261.433C66.4163 260.954 66.4662 260.175 66.9811 260.138Z" fill="#333365"/>
<path fill-rule="evenodd" clip-rule="evenodd" d="M198.292 290.536C192.863 297.652 178.042 292.156 171.677 287.999C165.311 283.843 167.755 279.817 167.755 277.848C167.755 275.879 167.318 273.471 166.253 271.768C165.188 270.066 148.352 262.766 148.352 254.749C148.352 247.27 153.399 240.428 160.458 237.329C171.677 232.404 177.165 235.535 187.531 239.861C197.898 244.186 197.045 254.749 197.045 254.749C197.045 254.749 205.547 281.026 198.292 290.536Z" fill="#DDDDDD"/>
<path d="M191.604 294.477C168.671 292.94 147.191 277.814 137.094 256.636C126.996 235.459 128.437 209.067 140.338 188.9C152.239 168.732 174.091 155.257 197.002 153.402C202.927 152.922 208.98 153.183 214.659 154.98C220.827 156.933 226.372 160.632 232.567 162.49C241.086 165.044 250.145 163.117 257.803 158.515C263.497 155.094 268.642 150.634 274.758 148.09C281.903 145.118 290.27 146.226 297.096 149.905C303.921 153.583 309.328 159.607 313.494 166.262C325.898 186.079 327.737 210.721 329.225 234.221C330.043 247.134 330.796 260.518 326.297 272.608C322.215 283.58 314.159 292.47 305.753 300.444C296.84 308.899 287.246 316.719 276.518 322.549C255.607 333.912 231.144 337.199 207.574 335.029C184.005 332.859 161.163 325.487 139.17 316.53C126.894 311.53 113.658 325.009 100.734 322.215C92.7484 320.489 87.1528 312.99 79.564 309.911C71.409 306.602 61.3144 309.267 55.7291 316.202C60.6172 304.066 77.3512 299.017 87.867 306.504C93.1884 310.293 100.323 310.057 106.614 308.473C112.905 306.89 118.926 304.12 125.352 303.276C134.548 302.068 143.747 304.887 152.989 305.642C164.295 306.564 175.599 304.387 186.742 302.22C198.744 299.886 210.746 297.552 222.748 295.219C228.539 294.092 234.429 292.932 239.642 290.11C245.513 286.933 250.287 281.671 252.956 275.437C232.966 292.621 202.923 293.526 191.604 294.477Z" fill="white"/>
<path fill-rule="evenodd" clip-rule="evenodd" d="M200 291.12C194.571 298.236 179.75 292.74 173.385 288.583C167.019 284.427 169.463 280.401 169.463 278.432C169.463 276.463 169.026 274.055 167.961 272.352C166.896 270.65 150.06 263.35 150.06 255.333C150.06 247.854 155.107 241.012 162.166 237.913C173.385 232.988 178.873 236.119 189.239 240.445C199.606 244.77 198.753 255.333 198.753 255.333C198.753 255.333 207.255 281.61 200 291.12Z" fill="#DDDDDD"/>
<path fill-rule="evenodd" clip-rule="evenodd" d="M222.498 257.911C222.664 258.635 223.45 259.36 224.046 258.935C227.156 256.715 230.278 254.488 233.648 252.71C235.819 251.565 238.142 250.569 239.833 248.762C237.783 249.786 235.362 249.631 233.13 249.157C230.897 248.684 228.709 247.916 226.433 247.778C224.484 247.661 222.509 248.019 220.717 248.816C219.639 249.295 218.581 249.98 218.028 251.044C217.476 252.107 217.607 253.613 218.572 254.3C219.612 255.041 221.286 254.693 222.013 255.757C222.429 256.366 222.331 257.186 222.498 257.911Z" fill="#DDDDDD"/>
<path fill-rule="evenodd" clip-rule="evenodd" d="M252.164 189.026C256.817 197.575 262.74 203.68 258.968 207.562C255.698 210.928 256.839 205.072 253.128 203.816C250.665 202.982 245.408 204.702 240.808 204.504C234.471 204.232 233.593 208.514 228.875 208.286C221.532 207.932 211.539 202.989 208.468 201.772C204.781 200.311 205.886 195.249 208.468 192.849C209.419 191.965 212.534 194.551 212.878 193.367C214.156 188.968 211.383 185.042 213.5 184.454C214.474 184.184 218.026 185.376 219.371 186.79C220.951 188.45 222.54 190.92 225.803 189.916C231.845 188.056 231.069 184.004 235.791 184.004C240.512 184.004 246.683 187.552 249.657 188.596C252.63 189.64 247.51 180.476 252.164 189.026Z" fill="#DDDDDD"/>
<path fill-rule="evenodd" clip-rule="evenodd" d="M204.183 232.142C204.8 234.031 206.067 235.684 207.502 237.026C208.845 238.281 210.985 239.352 210.718 241.195C213.379 238.31 217.359 236.763 221.216 237.114C222.524 237.233 223.809 237.556 225.118 237.661C229.927 238.044 234.439 235.484 238.615 233.008C241.614 231.229 244.613 229.451 247.612 227.672C248.307 226.191 247.769 224.34 246.695 223.12C245.622 221.899 244.112 221.188 242.616 220.597C240.995 219.957 239.307 219.413 237.57 219.376C235.875 219.34 233.657 219.492 233.045 217.87C232.232 215.718 230.248 214.078 228.026 213.721C225.803 213.363 223.425 214.302 222.009 216.096C220.544 217.952 218.149 218.666 215.961 219.484C213.31 220.474 210.761 221.752 208.371 223.291C206.368 224.582 204.296 226.382 204.183 228.805C204.134 229.836 203.863 231.164 204.183 232.142Z" fill="#DDDDDD"/>
<path fill-rule="evenodd" clip-rule="evenodd" d="M210.44 177.715C213.589 178.636 216.54 175.624 219.796 175.269C222.456 174.979 225.086 176.5 227.737 176.129C228.694 175.995 229.824 175.08 229.32 174.235C229.026 173.741 228.362 173.681 227.799 173.675C224.734 173.645 221.669 173.614 218.604 173.583C217.607 173.573 216.526 173.534 215.753 172.889C214.142 171.547 212.182 170.725 210.204 170.081C207.5 169.2 204.702 168.617 201.876 168.368C198.789 168.097 195.67 168.225 192.615 168.75C191.417 170.346 190.218 171.942 189.019 173.539C187.548 175.499 185.575 177.676 183.196 177.272C180.092 176.744 176.829 177.252 174.016 178.7C176.844 177.741 179.976 177.752 182.798 178.729C184.59 179.349 186.247 180.341 188.058 180.899C192.56 182.285 197.396 180.842 201.797 179.146C204.579 178.073 207.581 176.878 210.44 177.715Z" fill="#DDDDDD"/>
<path d="M263.874 214.135C263.946 214.772 264.343 215.315 264.745 215.806C266.772 218.283 269.376 220.375 272.424 221.204C278.062 222.738 284.123 219.579 287.805 214.938C291.487 210.296 293.273 204.413 294.91 198.67C295.382 197.012 296.084 195.102 297.706 194.637C299.459 194.135 300.919 192.668 301.446 190.881C301.973 189.093 301.549 187.043 300.36 185.629C299.016 184.03 296.117 183.57 295.093 185.401C294.695 186.113 293.722 186.278 292.962 186.024C292.201 185.769 291.586 185.204 290.942 184.717C286.956 181.701 281.637 181.529 276.683 181.476C275.115 181.46 273.528 181.445 272.005 181.825C268.855 182.61 266.308 184.983 263.269 186.14C259.384 187.62 254.775 186.895 251.501 184.289C255.057 190.063 258.026 196.217 260.344 202.619C260.514 203.905 263.463 210.509 263.874 214.135Z" fill="white"/>
<path fill-rule="evenodd" clip-rule="evenodd" d="M184.143 191.392C183.321 189.342 182.088 186.934 179.929 186.852C179.34 186.829 178.762 186.998 178.181 187.099C175.081 187.64 171.26 183.642 170.098 183.318C168.935 182.994 167.527 185.242 166.054 185.917C164.582 186.592 163.036 187.67 162.821 189.31C162.65 190.622 163.395 192 162.944 193.24C162.304 195.001 159.716 195.301 159.037 197.045C158.442 198.571 159.651 200.168 160.817 201.294C163.418 203.805 166.493 206.456 166.749 210.11C166.845 211.478 168.093 212.407 169.19 213.191C173.231 216.082 176.807 219.656 179.729 223.725C179.061 222.778 179.41 221.397 180.131 220.491C180.853 219.585 181.87 218.988 182.733 218.223C184.423 216.725 185.513 214.589 187.297 213.21C189.543 211.473 192.509 211.199 195.278 210.691C198.046 210.183 201.042 209.168 202.423 206.654C202.557 206.41 202.676 206.138 202.65 205.859C202.575 205.065 201.548 204.886 200.896 204.453C199.672 203.641 199.762 201.825 199.342 200.394C198.731 198.312 196.822 196.847 194.793 196.219C192.763 195.592 190.599 195.664 188.48 195.742C186.321 195.822 184.964 193.442 184.143 191.392Z" fill="#DDDDDD"/>
<path d="M393.258 326.394C393.021 326.604 392.789 326.071 392.968 325.808C393.222 325.732 393.305 326.148 393.247 326.413L393.258 326.394Z" fill="#1E1E1E"/>
<path fill-rule="evenodd" clip-rule="evenodd" d="M301.994 274.576C300.566 275.127 298.824 274.674 297.826 273.49C297.317 272.888 296.338 273.253 295.759 273.784C295.179 274.315 294.608 275.019 293.831 275.014C293.035 275.009 292.427 274.193 292.341 273.381C292.254 272.57 292.553 271.773 292.845 271.014C291.757 271.227 290.613 271.436 289.56 271.084C288.507 270.732 287.609 269.612 287.887 268.512C287.989 268.109 288.232 267.758 288.511 267.457C289.438 266.46 290.832 265.943 292.166 266.102C292.816 266.179 293.043 265.24 292.987 264.572C292.882 263.299 292.682 261.99 293.03 260.764C293.378 259.537 294.485 258.416 295.72 258.584C297.287 258.797 297.945 260.738 298.119 262.35C298.179 262.9 298.625 263.654 299.044 263.305C300.389 262.18 302.539 262.243 303.82 263.445C304.314 263.909 304.691 264.559 304.657 265.246C304.617 266.045 304.036 266.714 303.388 267.16C302.74 267.607 301.999 267.902 301.369 268.375C302.742 269.318 304.183 270.735 303.901 272.405C303.731 273.409 302.925 274.217 301.994 274.576ZM295.935 269.146C295.969 269.309 296.004 269.471 296.038 269.634C294.89 270.224 294.536 271.701 294.308 272.997C294.65 273.261 295.126 272.917 295.371 272.556C295.907 271.767 296.16 270.817 296.554 269.943C296.947 269.07 297.558 268.21 298.459 267.942C298.833 267.83 299.231 267.831 299.613 267.753C300.428 267.589 301.134 267.086 301.813 266.595C302.192 266.321 302.592 266.019 302.747 265.571C303.095 264.569 301.881 263.589 300.861 263.781C299.841 263.972 299.102 264.865 298.503 265.733C297.904 266.601 297.299 267.55 296.348 267.973C296.072 268.095 295.755 268.166 295.472 268.063C295.189 267.959 294.971 267.632 295.067 267.339C295.163 267.047 295.633 266.961 295.767 267.237C296.005 267.124 296.119 266.795 296.002 266.554C294.792 266.775 293.582 266.996 292.372 267.217C291.707 267.339 291.018 267.471 290.47 267.875C289.922 268.28 289.563 269.043 289.825 269.682C291.582 270.872 293.891 268.632 295.935 269.146ZM298.985 269.266C298.156 269.43 297.843 270.572 298.163 271.373C298.483 272.175 299.199 272.72 299.833 273.292C300.447 273.845 301.515 273.589 301.954 272.882C302.392 272.175 302.251 271.196 301.756 270.53C301.261 269.864 300.475 269.478 299.676 269.304C299.449 269.255 299.213 269.221 298.985 269.266ZM296.771 263.759C296.723 262.515 296.602 261.111 295.66 260.326C295.373 260.086 295.004 260.512 294.888 260.872C294.591 261.792 294.453 262.766 294.484 263.734C294.5 264.219 294.564 264.722 294.827 265.125C295.09 265.527 295.602 265.793 296.047 265.631C296.71 265.389 296.798 264.48 296.771 263.759V263.759Z" fill="#DEDEF6"/>
<path fill-rule="evenodd" clip-rule="evenodd" d="M295.605 165.105C295.04 164.702 294.474 164.298 293.908 163.895C294.76 163.265 296.021 163.45 296.824 164.146C297.627 164.841 298.016 165.938 298.088 167.014C298.142 167.834 297.965 168.774 297.286 169.21C296.632 169.631 295.785 169.425 295.043 169.205C294.431 169.024 293.819 168.844 293.207 168.663C292.565 168.473 291.998 169.132 291.689 169.74C291.38 170.348 291.024 171.075 290.361 171.166C289.479 171.287 288.957 170.231 288.329 169.584C286.501 167.701 282.85 169.052 281.161 167.036C280.442 166.178 280.338 164.879 280.774 163.839C281.211 162.8 282.124 162.018 283.15 161.601C283.566 161.431 284.013 161.31 284.364 161.023C284.714 160.737 284.938 160.215 284.727 159.81C284.246 158.885 283.755 157.93 283.655 156.887C283.555 155.844 283.943 154.679 284.844 154.186C285.717 153.708 286.842 153.991 287.611 154.629C288.381 155.266 288.861 156.195 289.268 157.12C289.384 157.385 289.51 157.667 289.75 157.82C289.991 157.973 290.381 157.907 290.459 157.628C290.853 156.215 292.715 155.627 293.989 156.301C295.262 156.975 295.904 158.544 295.863 160.013C295.849 160.537 295.754 161.075 295.468 161.509C295.266 161.814 294.982 162.049 294.698 162.274C293.844 162.948 292.949 163.566 292.02 164.125C291.979 165.941 293.412 167.668 295.166 167.917C295.761 168.002 296.473 167.87 296.755 167.325C297.178 166.512 296.343 165.631 295.605 165.105ZM292.362 162.095C293.351 161.964 294.232 161.194 294.515 160.213C294.798 159.232 294.467 158.095 293.707 157.433C293.557 157.302 293.382 157.185 293.185 157.172C292.955 157.157 292.742 157.286 292.546 157.41C291.127 158.308 289.533 159.517 289.566 161.227C289.601 163.033 289.012 164.845 287.926 166.267C287.534 166.78 287.831 167.552 288.273 168.021C288.716 168.49 289.298 168.839 289.599 169.414C289.808 169.815 290.437 169.765 290.734 169.427C291.03 169.088 291.081 168.599 291.102 168.144C291.18 166.444 291.041 164.735 290.69 163.072C290.612 162.704 290.928 162.357 291.274 162.235C291.621 162.113 291.998 162.143 292.362 162.095M288.105 163.233C287.51 163.57 286.865 162.945 286.284 162.582C284.672 161.576 282.354 162.881 281.911 164.762C281.738 165.497 282.25 166.256 282.906 166.6C283.563 166.944 284.328 166.972 285.065 166.993C285.557 167.006 286.093 167.006 286.48 166.693C286.733 166.489 286.88 166.181 287.016 165.881C287.411 165.013 287.774 164.129 288.105 163.233ZM286.099 155.27C285.521 155.234 285.028 155.777 284.912 156.359C284.797 156.941 284.969 157.54 285.173 158.096C285.85 159.942 286.911 161.639 288.263 163.041C288.588 160.522 288.791 157.607 287.046 155.803C286.787 155.534 286.467 155.292 286.099 155.27V155.27Z" fill="#DDDDDD"/>
<path fill-rule="evenodd" clip-rule="evenodd" d="M166.231 222.499C164.665 223.379 163.657 225.212 163.733 227.041C163.765 227.833 163.9 228.82 163.244 229.239C162.703 227.323 162.957 225.185 163.93 223.458C164.17 223.032 164.467 222.616 164.891 222.384C165.314 222.152 165.889 222.153 166.231 222.499V222.499Z" fill="#1E1E1E"/>
<ellipse cx="290.36" cy="200.604" rx="1.99267" ry="2.044" fill="#DEDEF6"/>
<path fill-rule="evenodd" clip-rule="evenodd" d="M227.389 265.364C227.549 264.665 227.861 263.909 228.512 263.647C229.947 263.07 231.072 265.311 232.609 265.431C233.449 265.497 234.2 264.907 235.03 264.762C236.406 264.522 237.839 265.775 237.826 267.206C237.815 268.42 236.943 269.479 236.865 270.691C236.089 270.552 235.216 270.879 234.816 271.576C234.416 272.273 234.624 273.306 235.321 273.683C236.019 274.061 237.044 273.534 237.069 272.726C237.082 272.289 236.843 271.888 236.78 271.456C236.718 271.024 236.983 270.466 237.404 270.532C238.218 271.069 238.658 272.144 238.461 273.116C238.265 274.089 237.446 274.896 236.49 275.057C236.197 275.107 235.884 275.104 235.625 275.253C235.182 275.508 235.062 276.088 234.891 276.578C234.558 277.528 233.837 278.358 232.904 278.68C231.971 279.003 230.84 278.749 230.213 277.97C229.586 277.191 229.596 275.911 230.315 275.221C229.871 274.99 229.416 275.468 229 275.746C227.95 276.446 226.383 275.742 225.943 274.539C225.504 273.337 226.039 271.919 226.995 271.089C227.301 270.824 227.689 270.486 227.568 270.094C227.097 268.572 227.034 266.919 227.389 265.364ZM231.992 271.119C231.615 272.722 231.238 274.329 231.041 275.966C230.982 276.454 230.974 277.033 231.351 277.337C231.756 277.665 232.368 277.462 232.769 277.128C233.846 276.23 234.08 274.444 233.274 273.286C232.706 272.471 233.222 271.305 233.943 270.629C234.664 269.952 235.593 269.48 236.117 268.634C236.64 267.788 236.421 266.348 235.456 266.191C234.705 266.068 233.882 266.281 233.359 266.847C232.885 267.36 232.707 268.08 232.545 268.766C232.361 269.55 232.176 270.334 231.992 271.119ZM230.678 269.951C231.385 269.547 231.504 268.537 231.323 267.728C231.116 266.8 230.624 265.942 229.935 265.304C229.772 265.153 229.584 265.008 229.365 264.987C228.771 264.929 228.492 265.71 228.412 266.316C228.295 267.208 228.184 268.154 228.541 268.976C228.898 269.798 229.911 270.389 230.678 269.951M227.392 274.267C227.885 274.887 228.901 274.527 229.414 273.925C229.927 273.323 230.25 272.519 230.921 272.113C231.212 271.936 230.983 271.42 230.649 271.365C230.316 271.309 230.002 271.515 229.699 271.668C229.098 271.972 228.409 272.097 227.862 272.494C227.314 272.891 226.969 273.734 227.392 274.267Z" fill="#DEDEF6"/>
<path d="M392.381 316.953C392.64 316.855 392.733 317.318 392.594 317.563C392.331 317.659 392.236 317.195 392.368 316.943L392.381 316.953Z" fill="#1E1E1E"/>
<path fill-rule="evenodd" clip-rule="evenodd" d="M301.446 190.881C302.12 189.096 301.549 187.043 300.36 185.629C299.016 184.03 296.117 183.57 295.093 185.401C294.695 186.113 293.722 186.278 292.962 186.024C292.201 185.769 291.586 185.204 290.942 184.717C286.956 181.701 281.637 181.529 276.683 181.476C275.115 181.46 273.528 181.445 272.005 181.825C268.855 182.61 266.308 184.983 263.269 186.14C259.384 187.62 254.775 186.895 251.501 184.289C252.825 186.439 256.463 193.387 256.463 193.387C256.463 193.387 255.808 190.141 256.787 189.843C258.586 189.295 260.875 190.401 262.642 190.147C269.229 189.198 272.715 185.905 275.275 185.629C292.962 183.719 299.694 195.517 301.446 190.881Z" fill="#DDDDDD"/>
<path fill-rule="evenodd" clip-rule="evenodd" d="M305.753 295.772C296.84 304.227 287.246 312.047 276.518 317.877C255.607 329.24 231.144 332.527 207.574 330.357C184.005 328.187 161.163 320.815 139.17 311.858C132.95 309.325 188.876 327.457 233.702 323.05C277.347 318.759 309.9 291.838 305.753 295.772Z" fill="#DDDDDD"/>
<ellipse cx="268.725" cy="211.992" rx="2.84667" ry="2.92" fill="#DEDEF6"/>
<path d="M179.296 228.075C180.794 230.887 183.291 233.062 184.617 235.963C186.204 239.433 205.517 271.07 206.187 271.184C207.58 271.421 209.964 269.068 209.714 269.862C209.618 269.707 231.685 282.259 227.203 285.324C222.056 288.843 211.424 292.621 198.023 292.621C192.846 291.435 189.623 286.282 186.967 281.572C178.922 267.3 170.857 252.923 165.402 237.416C164.769 235.616 164.099 233.696 162.616 232.535C161.38 231.566 159.77 231.284 158.223 231.112C154.352 230.682 150.44 231.111 146.573 231.324C142.059 231.573 142.059 229.294 143.291 228.599C145.172 227.537 147.219 227.125 148.69 225.761C146.621 226.709 145.842 227.152 143.596 227.452C141.349 227.751 142.39 225.87 142.499 224.983C142.157 226.365 140.212 227.278 139.13 226.202C137.725 224.805 139.71 221.623 141.184 220.778C141.435 220.634 149.647 216.277 150.215 215.924C149.492 215.751 142.272 220.953 139.9 220.168C138.357 219.658 139.976 216.883 141.47 215.151C146.095 209.789 144.871 211.62 146.571 209.855C147.519 208.871 149.053 208.913 150.397 209.023C152.425 209.19 160.577 208.563 167.313 213.106C173.639 217.373 178.609 226.786 179.296 228.075Z" fill="white"/>
<path fill-rule="evenodd" clip-rule="evenodd" d="M306.636 118.979C305.541 119.284 304.627 120.198 304.301 121.313C304.062 122.129 304.126 123.003 304.216 123.85C304.362 125.237 304.613 126.707 305.536 127.731C306.539 126.776 306.547 125.162 306.321 123.779C306.288 123.576 306.251 123.372 306.215 123.167L306.214 123.165C306.001 121.971 305.783 120.75 306.183 119.626C307.243 121.337 307.577 123.504 307.082 125.467L310.233 124.135C310.825 123.885 311.527 124.245 311.891 124.784C312.256 125.323 312.364 125.996 312.463 126.644C312.698 128.189 312.748 130.148 311.406 130.889C311.015 131.106 310.468 131.586 310.835 131.844C311.93 132.616 312.221 134.335 311.495 135.477C310.769 136.619 309.178 137.051 307.968 136.487C306.757 135.923 306.031 134.467 306.226 133.118L303.459 134.935C303.205 135.102 302.921 135.276 302.623 135.226C302.251 135.164 302.023 134.787 301.844 134.447C301.136 133.107 300.423 131.472 301.136 130.135C299.947 129.824 298.864 129.001 298.352 127.857C297.84 126.713 297.967 125.26 298.772 124.31C299.576 123.36 301.057 123.045 302.106 123.697C302.597 124.002 302.967 123.154 302.987 122.565C303.041 120.96 303.542 119.175 304.925 118.422C305.561 118.076 306.625 118.241 306.636 118.979ZM308.582 129.67C309.673 130.303 311.263 129.63 311.601 128.392C311.94 127.154 310.923 125.731 309.671 125.689C308.162 125.639 307.108 127.193 306.538 128.627C306.309 129.202 305.477 129.05 304.939 128.765C304.401 128.481 303.637 128.21 303.285 128.715C302.82 129.379 302.111 129.86 301.333 130.038C301.784 130.407 301.949 130.987 302.115 131.57L302.115 131.57L302.115 131.57C302.189 131.828 302.262 132.085 302.36 132.326C302.681 133.112 303.767 133.756 304.283 133.088C305.189 131.917 306.244 130.867 307.413 129.973C307.755 129.711 308.211 129.455 308.582 129.67ZM300.474 124.793C299.914 124.641 299.336 125.154 299.229 125.739C299.122 126.323 299.372 126.919 299.708 127.404C299.86 127.625 300.035 127.835 300.256 127.983C300.823 128.365 301.582 128.267 302.214 128.015C302.468 127.914 302.714 127.79 302.96 127.667L302.96 127.667C303.325 127.483 303.691 127.3 304.082 127.19C303.167 126.027 301.884 125.174 300.474 124.793ZM310.584 134.545C310.823 134.056 310.669 133.442 310.343 133.008C310.018 132.574 309.55 132.282 309.093 132L308.345 131.538C308.058 131.361 307.715 131.178 307.404 131.305C306.882 131.517 306.979 132.298 307.18 132.836C307.468 133.608 307.81 134.417 308.475 134.885C309.14 135.352 310.222 135.284 310.584 134.545ZM251.438 129.527C251.87 129.954 251.931 130.742 251.52 131.192C251.109 131.641 250.278 131.591 249.969 131.063C249.803 130.779 249.799 130.439 249.795 130.102V130.101C249.794 129.995 249.793 129.889 249.787 129.786C249.761 129.351 249.408 128.348 249.315 128.117C248.167 127.153 247.731 125.566 247.498 124.062C247.325 122.939 247.237 121.749 247.667 120.701C248.097 119.653 249.193 118.814 250.277 119.051C251.534 119.326 252.136 120.767 252.54 122.019C252.871 123.04 253.087 124.415 252.191 124.974C252.037 123.61 251.853 122.168 251.02 121.094C250.492 120.412 249.403 119.966 248.838 120.616C248.595 120.896 248.536 121.292 248.509 121.666C248.298 124.555 249.401 127.518 251.438 129.527ZM249.339 136.255L249.174 136.281C247.7 136.515 246.169 136.758 245.012 135.396C243.811 133.982 243.393 130.902 244.043 130.098C244.958 128.968 246.417 128.301 247.852 128.398C247.914 128.551 247.875 128.893 247.835 129.238C247.794 129.589 247.753 129.944 247.819 130.106C246.824 129.575 245.463 129.939 244.849 130.902C244.772 131.021 244.705 131.166 244.746 131.302C245.073 132.37 245.43 133.482 246.21 134.266C246.989 135.05 248.328 135.37 249.174 134.662C249.444 134.436 249.635 134.134 249.827 133.831L249.827 133.831C249.981 133.588 250.136 133.343 250.333 133.138C250.774 132.676 251.668 132.525 251.944 133.107C251.275 133.795 250.64 134.519 250.042 135.273C249.9 135.453 249.758 135.719 249.906 135.895C250.268 136.324 250.337 136.908 250.406 137.485L250.406 137.485C250.425 137.645 250.444 137.805 250.469 137.96C250.585 138.677 251.026 139.49 251.734 139.472C252.331 139.457 252.733 138.861 253.033 138.331L254.159 136.338C254.486 136.379 254.699 136.746 254.692 137.084C254.685 137.422 254.518 137.733 254.349 138.023C253.829 138.918 253.256 139.781 252.634 140.604C252.445 140.855 252.228 141.118 251.926 141.19C251.614 141.265 251.293 141.114 251.024 140.934C249.568 139.962 248.849 137.964 249.339 136.255ZM255.759 123.876C256.259 123.618 256.936 123.625 257.314 124.049C258.148 126.117 257.587 128.692 255.976 130.2C255.938 130.236 255.9 130.27 255.862 130.306L255.859 130.308C255.593 130.551 255.319 130.802 255.227 131.149C255.123 131.548 255.458 132.072 255.84 131.942C256.106 131.851 256.191 131.544 256.272 131.253C256.289 131.19 256.306 131.128 256.325 131.069C256.558 130.336 257.337 129.832 258.081 129.931C259.038 130.354 260.976 131.497 260.61 134.527C260.282 137.239 258.976 137.111 258.509 137.066C258.454 137.061 258.411 137.056 258.382 137.058C257.118 137.133 256.36 135.721 255.744 134.572L255.71 134.509C255.42 133.968 254.764 133.383 254.311 133.789C254.133 133.948 254.08 134.205 254.047 134.443C253.997 134.809 253.982 135.219 254.208 135.506C254.434 135.794 254.984 135.791 255.081 135.435C255.197 136.514 255.772 137.556 256.677 138.118C257.583 138.679 258.812 138.699 259.677 138.073C260.302 137.622 260.689 136.902 260.976 136.175C261.239 135.508 261.437 134.804 261.451 134.084C261.487 132.335 260.417 130.715 259.038 129.684C258.678 129.415 258.249 129.081 258.294 128.627L258.497 126.601C258.595 125.624 258.687 124.606 258.345 123.689C258.003 122.773 257.082 122.003 256.144 122.196C255.394 122.351 254.925 123.004 254.451 123.665C254.02 124.267 253.585 124.874 252.93 125.116C252.205 125.383 252.168 126.406 252.264 127.19C252.296 127.454 252.334 127.732 252.496 127.94C252.657 128.148 252.987 128.242 253.177 128.062C253.129 126.929 253.855 125.933 254.544 125.046C254.893 124.597 255.258 124.134 255.759 123.876ZM190.278 167.674C191.693 166.392 193.652 165.97 195.529 165.764C202.121 165.042 208.921 166.466 214.71 169.78C214.825 169.845 214.939 169.911 215.054 169.978C216.111 170.59 217.195 171.218 218.398 171.295C218.775 171.319 219.153 171.287 219.53 171.255C219.861 171.227 220.191 171.199 220.521 171.208C221.312 171.231 222.051 171.352 222.782 171.471C224.152 171.694 225.494 171.913 227.097 171.473C229.394 170.841 229.732 171.46 229.976 172.726C230.22 173.992 229.33 175.272 228.187 175.811C227.043 176.349 225.72 176.294 224.478 176.089C224.118 176.03 223.76 175.959 223.401 175.888C222.521 175.715 221.641 175.541 220.747 175.539C218.978 175.536 217.221 176.195 215.492 176.843C213.048 177.76 210.659 178.657 208.367 177.634C207.556 177.272 206.622 177.528 205.775 177.789L196.817 180.542C194.6 181.223 192.308 181.912 190.009 181.641C188.184 181.426 186.5 180.625 184.816 179.823C183.119 179.015 181.422 178.207 179.581 178.001C178.03 177.826 176.458 178.09 174.895 178.353C172.905 178.687 170.929 179.019 169.024 178.442C169.127 177.939 169.664 177.683 170.134 177.503C173.006 176.401 175.925 175.289 178.981 175.053C179.485 175.014 179.999 174.996 180.514 174.979C182.382 174.915 184.272 174.85 185.766 173.767C186.859 172.976 187.536 171.775 188.216 170.57C188.809 169.519 189.404 168.465 190.278 167.674ZM209.87 176.547C211.728 177.09 213.517 176.265 215.34 175.424C216.607 174.839 217.891 174.247 219.227 174.101C220.529 173.959 221.823 174.251 223.117 174.543C224.466 174.847 225.814 175.151 227.167 174.961C228.124 174.827 229.254 173.912 228.75 173.067C228.456 172.573 227.793 172.513 227.229 172.507L218.035 172.415C217.038 172.405 215.957 172.366 215.184 171.721C213.573 170.379 211.612 169.557 209.635 168.913C206.931 168.033 204.133 167.449 201.306 167.2C198.22 166.929 195.101 167.057 192.046 167.582L188.45 172.371C186.979 174.331 185.006 176.508 182.627 176.104C179.523 175.576 176.259 176.084 173.447 177.532C176.275 176.573 179.406 176.584 182.229 177.561C183.056 177.847 183.855 178.213 184.653 178.579C185.584 179.005 186.514 179.431 187.488 179.731C191.991 181.117 196.827 179.674 201.228 177.978L201.386 177.917C204.123 176.861 207.066 175.726 209.87 176.547ZM184.223 215.922C185.811 213.962 187.356 212.056 189.723 211.964C193.406 211.821 197.021 210.47 199.989 208.229C200.709 207.686 201.426 207.04 201.686 206.163C201.946 205.286 201.542 204.148 200.67 203.947C198.98 203.559 198.335 201.752 197.701 199.975C197.498 199.406 197.296 198.84 197.061 198.325C196.06 196.129 193.974 194.489 191.646 194.07C190.764 193.911 189.866 193.918 188.968 193.926C188.172 193.932 187.376 193.939 186.589 193.829C184.915 193.597 183.126 192.59 182.82 190.885C182.045 186.576 177.269 183.519 173.155 184.7C171.984 185.036 170.988 184.262 169.962 183.463C169.151 182.832 168.321 182.187 167.368 182.059C166.541 181.949 165.719 182.251 164.936 182.549C163.171 183.22 161.359 183.92 159.967 185.22C158.575 186.52 157.688 188.581 158.279 190.414C158.631 191.507 157.752 192.61 156.824 193.257C156.632 193.39 156.432 193.518 156.232 193.647C155.463 194.142 154.684 194.643 154.295 195.465C153.709 196.703 154.247 198.197 155 199.336C155.828 200.59 156.93 201.716 158.022 202.832C160.121 204.975 162.183 207.081 162.198 209.991L150.397 209.023C149.053 208.913 147.519 208.871 146.571 209.855C146.004 210.443 145.762 210.632 145.52 210.821C145.037 211.199 144.553 211.577 141.47 215.151C139.976 216.883 138.357 219.658 139.9 220.168C141.457 220.683 145.102 218.619 147.628 217.189L147.628 217.189L147.629 217.189C148.951 216.44 149.967 215.865 150.215 215.924C149.825 216.166 145.836 218.293 143.29 219.651L143.288 219.652L143.287 219.653L143.284 219.654C142.122 220.274 141.262 220.732 141.184 220.777C139.71 221.623 137.725 224.805 139.13 226.202C140.212 227.278 142.157 226.365 142.499 224.983C142.478 225.158 142.42 225.371 142.358 225.599C142.107 226.527 141.792 227.692 143.596 227.451C145.614 227.183 146.448 226.797 148.097 226.035C148.283 225.949 148.48 225.858 148.69 225.761C147.772 226.612 146.631 227.092 145.445 227.591L145.445 227.591L145.444 227.591L145.444 227.591L145.444 227.591L145.444 227.592C144.729 227.892 143.999 228.199 143.291 228.599C142.059 229.294 142.059 231.573 146.573 231.324C147.341 231.282 148.11 231.231 148.88 231.18H148.88C151.991 230.974 155.12 230.767 158.223 231.112C159.77 231.284 161.38 231.566 162.616 232.534C164.092 233.691 164.763 235.598 165.394 237.391L165.402 237.416C170.857 252.923 178.922 267.3 186.967 281.572C189.623 286.282 192.846 291.435 198.023 292.621C184.304 275.494 173.546 255.878 166.398 234.959C165.57 232.538 163.333 230.85 160.949 230.073C158.565 229.296 156.016 229.291 153.515 229.294C151.929 229.296 150.64 229.532 149.393 229.76C147.753 230.061 146.184 230.348 144.106 230.073C142.431 229.851 143.848 229.25 145.861 228.397C147.889 227.537 150.522 226.42 151.205 225.177C150.418 223.895 148.482 224.446 147.245 225.274C146.008 226.102 142.177 227.38 143.101 225.761C144.246 223.756 146.283 222.672 148.335 221.58C148.984 221.235 149.634 220.889 150.259 220.513C150.94 220.102 150.429 218.881 149.647 218.761C148.865 218.64 148.145 219.174 147.526 219.679C146.843 220.235 146.064 221.041 145.26 221.873C143.371 223.827 141.342 225.925 140.096 225.274C137.388 223.858 145.996 219.184 150.764 216.595L150.771 216.592C151.079 216.424 151.371 216.266 151.642 216.118C150.56 214.206 147.657 215.147 146.024 216.59L145.901 216.699L145.767 216.818C144.188 218.22 142.334 219.867 140.421 219.133C139.284 218.697 140.93 217.311 142.576 215.925L142.576 215.925C143.399 215.232 144.222 214.54 144.697 213.965C145.496 213.001 146.319 212.014 147.402 211.407C148.726 210.664 150.294 210.567 151.804 210.553C155.561 210.518 159.321 210.898 162.999 211.684C168.352 215.322 172.98 220.077 176.517 225.574C184.776 238.406 192.864 251.352 200.953 264.298C201.046 264.448 201.215 264.735 201.438 265.112L201.439 265.114C202.627 267.128 205.337 271.722 206.187 271.831C207.127 271.951 208.1 271.147 208.789 270.522L241.848 249.414C247.222 245.982 253.169 242.413 259.447 243.248C269.617 244.6 279.934 245.829 290.098 244.429C300.262 243.029 310.407 238.71 316.993 230.646C305.093 240.37 289.472 245.162 274.322 243.736C272.259 243.542 270.18 243.24 268.099 242.938C261.822 242.026 255.526 241.111 249.603 243.147C248.081 243.67 246.536 244.381 244.989 245.094C240.611 247.111 236.208 249.139 232.195 246.955C228.55 244.971 223.99 245.998 220.363 248.016C216.736 250.035 212.168 252.792 215.344 256.287C218.52 259.782 211.888 258.188 208.185 256.32C204.482 254.452 203.615 247.935 207.397 245.296C205.704 247.269 205.761 251.224 208.234 251.911C210.708 252.598 213.309 251.345 215.344 249.746C217.647 247.937 217.325 245.607 217.038 243.525C216.731 241.298 216.462 239.354 219.483 238.629C221.552 238.133 223.685 238.287 225.822 238.44C227.77 238.581 229.721 238.721 231.629 238.369C234.776 237.787 237.452 235.955 240.144 234.11C241.826 232.958 243.514 231.801 245.328 230.943C250.048 228.709 255.397 228.582 260.612 228.458C260.919 228.451 261.225 228.444 261.53 228.436C271.066 228.196 280.787 227.373 289.572 223.561C298.356 219.748 306.165 212.488 308.635 203.037C310.668 195.258 308.745 186.508 303.656 180.375C298.566 174.243 290.452 170.899 282.641 171.716C278.561 172.143 274.619 173.615 270.7 175.078C265.326 177.084 259.996 179.074 254.418 178.327C246.308 177.24 240.085 170.674 234.556 164.491C241.148 165.528 248.019 164.62 254.14 161.904C257.258 160.521 260.174 158.686 263.085 156.855L263.086 156.855C267.063 154.353 271.031 151.857 275.488 150.527C286.548 147.227 298.868 152.007 306.946 160.43C315.025 168.853 319.382 180.368 321.682 191.946C323.181 199.49 323.892 207.159 324.603 214.83L324.603 214.831C324.983 218.932 325.363 223.034 325.864 227.118C326.116 229.176 326.398 231.247 326.681 233.324C328.331 245.456 330.014 257.823 326.048 269.229C322.66 278.972 315.525 286.776 308.522 294.218C299.009 304.33 289.205 314.488 277.185 321.231C266.067 327.469 253.511 330.51 240.977 332.434C231.146 333.944 221.188 334.809 211.26 334.285C190.491 333.189 170.52 326.082 150.976 318.79C143.953 316.169 136.615 313.472 129.193 314.375C125.381 314.84 121.676 316.241 117.998 317.632L117.998 317.632C112.54 319.697 107.141 321.739 101.541 320.66C96.3941 319.669 92.207 316.219 88.0234 312.771C83.7774 309.272 79.535 305.777 74.2959 304.857C78.9796 304.062 83.5973 306.272 88.1363 308.444C93.3783 310.952 98.5155 313.41 103.528 311.132C121.755 302.851 142.713 305.556 162.451 308.418L186.719 311.936C190.121 312.429 193.488 311.642 196.871 310.852C198.862 310.386 200.858 309.92 202.869 309.712C208.082 309.174 213.213 310.378 218.361 311.586C221.082 312.225 223.808 312.865 226.553 313.249C247.116 316.124 268.754 302.668 275.777 282.636C276.695 280.017 277.434 277.242 278.174 274.463L278.174 274.463C280.309 266.444 282.455 258.386 288.954 253.908C289.633 253.44 290.364 253.006 291.096 252.57C293.399 251.201 295.725 249.819 296.561 247.322C290.408 249.392 285.032 253.801 281.708 259.502C279.371 263.511 278.073 268.005 276.773 272.505C276.179 274.563 275.585 276.621 274.89 278.635C268.478 297.231 250.992 312.764 231.796 311.599C227.933 311.365 224.133 310.492 220.339 309.621C215.594 308.531 210.858 307.444 206.022 307.61C203.325 307.702 200.664 308.185 198.002 308.668C195.83 309.062 193.656 309.457 191.46 309.639C184.234 310.24 177.036 308.538 169.977 306.847C185.874 302.826 201.984 299.688 218.212 297.452C230.158 295.805 243.918 293.543 250.035 282.89C254.398 275.292 261.498 270.035 268.593 264.782C275.84 259.417 283.082 254.055 287.393 246.206C266.928 267.28 237.456 285.392 194.962 294.296C194.667 294.355 194.378 294.415 194.092 294.476C194.382 294.417 194.672 294.357 194.962 294.296C197.899 293.709 201.26 293.255 204.916 292.761C218.98 290.86 237.414 288.37 252.956 275.437C250.287 281.671 245.513 286.933 239.642 290.11C234.429 292.932 228.539 294.092 222.748 295.218L186.742 302.22C175.599 304.387 164.295 306.564 152.989 305.641C149.849 305.385 146.715 304.891 143.583 304.397C137.497 303.436 131.424 302.478 125.352 303.276C121.384 303.797 117.57 305.053 113.752 306.31L113.751 306.31C111.387 307.088 109.02 307.868 106.614 308.473C100.323 310.057 93.1884 310.293 87.867 306.504C77.3512 299.017 60.6172 304.066 55.7291 316.202C61.3144 309.267 71.4089 306.602 79.564 309.911C82.8938 311.262 85.8398 313.464 88.7723 315.656C92.5232 318.459 96.2521 321.247 100.734 322.215C106.826 323.532 112.987 321.234 119.084 318.959C125.922 316.408 132.68 313.887 139.17 316.53C161.163 325.487 184.005 332.859 207.574 335.029C231.144 337.199 255.607 333.912 276.518 322.549C287.246 316.719 296.84 308.899 305.753 300.444C314.159 292.47 322.215 283.58 326.297 272.607C330.796 260.518 330.043 247.134 329.225 234.221C327.737 210.721 325.898 186.079 313.494 166.262C309.328 159.607 303.921 153.583 297.096 149.905C290.27 146.226 281.903 145.118 274.758 148.09C270.807 149.733 267.262 152.176 263.712 154.622L263.712 154.622C261.766 155.962 259.819 157.304 257.803 158.515C250.145 163.117 241.086 165.044 232.567 162.49C229.39 161.537 226.383 160.1 223.376 158.662C220.52 157.297 217.663 155.931 214.659 154.98C208.98 153.183 202.927 152.922 197.002 153.402C174.091 155.257 152.239 168.732 140.338 188.9C128.437 209.067 126.996 235.459 137.094 256.636C147.191 277.814 168.671 292.94 191.604 294.476C188.757 292.666 185.456 291.986 182.14 291.304C180.269 290.919 178.394 290.533 176.593 289.942C171.601 288.305 166.584 283.62 167.842 278.402C168.92 273.926 165.057 269.814 161.155 267.526C160.395 267.08 159.609 266.653 158.821 266.224L158.82 266.224C155.556 264.45 152.239 262.647 150.496 259.392C146.743 252.382 152.593 244.197 158.04 238.474C151.98 242.043 147.475 248.282 145.912 255.268C149.556 261.751 155.375 266.919 162.152 269.691C165.631 274.347 167.32 280.373 166.785 286.214C146.953 273.788 133.441 251.32 131.513 227.564C131.053 221.893 131.255 215.986 133.574 210.816C138.771 199.228 144.111 187.45 152.464 178.001C165.121 163.684 184.475 155.898 203.245 157.572C222.015 159.246 239.769 170.341 249.827 186.684C246.158 184.607 242.368 182.489 238.204 182.008C234.04 181.527 229.362 183.086 227.33 186.845C225.791 189.691 221.598 187.442 219.382 185.113C217.165 182.785 212.66 180.924 211.53 183.965L212.662 190.62C208.356 188.441 203.122 195.038 206.077 198.92C207.08 200.239 208.601 201.011 210.069 201.739C218.288 205.821 227.858 209.954 236.205 206.155C240.489 204.206 245.191 203.232 249.876 203.325C251.005 203.347 252.182 203.446 253.15 204.043C253.908 204.51 254.454 205.229 255.003 205.951C255.373 206.436 255.743 206.923 256.18 207.337C257.266 208.366 259.332 208.704 260.001 207.352C261.766 210.581 263.565 213.914 264.012 217.587C264.46 221.26 263.232 225.401 260.129 227.289C257.025 229.178 252.135 227.587 251.512 223.941C250.919 220.465 247.44 219.586 243.793 218.664C240.706 217.884 237.498 217.074 235.821 214.631C234.059 212.066 230.442 211.551 227.498 212.405C225.342 213.031 223.413 214.225 221.485 215.42C220.781 215.856 220.078 216.292 219.363 216.7C218.228 217.348 217.049 217.936 215.87 218.524L215.87 218.524C212.89 220.011 209.913 221.497 207.658 223.943C204.512 227.359 203.639 233.661 207.397 236.348C208.802 237.353 219.363 246.206 213.555 249.207C204.898 253.68 207.27 245.689 208.183 244.268C204.006 244.779 202.099 250.748 204.363 254.384C206.627 258.021 211.698 260.291 215.812 259.392C217.85 258.947 217.251 257.829 216.545 256.511C215.826 255.169 214.996 253.62 216.731 252.365C216.398 253.662 217.657 254.109 219.052 254.604C220.144 254.992 221.319 255.409 221.88 256.287C222.891 257.869 221.321 259.822 219.892 261.019L209.394 269.804C209.251 269.882 209.071 269.996 208.865 270.127C208.098 270.612 206.981 271.32 206.187 271.184C205.517 271.07 198.506 258.477 197.081 252.008C196.916 251.261 196.788 250.494 196.66 249.729L196.66 249.729C196.198 246.968 195.74 244.229 193.597 242.521C192.529 241.67 191.266 241.031 190.014 240.397C187.805 239.279 185.63 238.177 184.617 235.963C183.905 234.404 182.854 233.056 181.803 231.705C180.896 230.541 179.989 229.377 179.296 228.075C177.799 225.264 177.76 221.061 180.501 219.527C181.965 218.708 183.105 217.301 184.223 215.922ZM177.083 186.268C179.242 186.35 180.474 188.758 181.296 190.808C182.117 192.858 183.474 195.238 185.633 195.158C187.752 195.08 189.916 195.008 191.946 195.635C193.976 196.263 195.884 197.728 196.495 199.81C196.612 200.21 196.69 200.639 196.767 201.068L196.768 201.069L196.768 201.069C196.968 202.177 197.167 203.284 198.049 203.869C198.237 203.994 198.456 204.097 198.674 204.201C199.214 204.456 199.75 204.71 199.803 205.275C199.83 205.554 199.71 205.826 199.576 206.07C198.195 208.584 195.199 209.599 192.431 210.107C192.032 210.18 191.629 210.248 191.224 210.317C188.822 210.724 186.373 211.14 184.45 212.626C183.489 213.369 182.728 214.333 181.967 215.298L181.967 215.298C181.316 216.123 180.665 216.949 179.886 217.639C179.586 217.906 179.267 218.152 178.948 218.397C178.351 218.857 177.755 219.317 177.285 219.907C176.563 220.813 176.214 222.194 176.883 223.141C173.961 219.072 170.385 215.498 166.343 212.607C165.246 211.823 163.998 210.894 163.902 209.526C163.666 206.157 161.034 203.641 158.587 201.301C158.379 201.103 158.173 200.906 157.97 200.71C156.804 199.584 155.596 197.987 156.19 196.461C156.527 195.596 157.334 195.086 158.14 194.576C158.958 194.059 159.775 193.543 160.098 192.656C160.352 191.956 160.226 191.212 160.098 190.461V190.461L160.098 190.461C159.999 189.881 159.9 189.297 159.975 188.726C160.102 187.75 160.49 187.496 161.456 186.863C162.113 186.433 163.037 185.827 164.33 184.7C166.29 182.99 169.089 184.281 171.514 185.4C173.035 186.102 174.409 186.735 175.334 186.515C175.906 186.379 176.493 186.245 177.083 186.268ZM192.261 243.147C193.638 244.756 195.077 246.499 195.351 248.622C195.491 249.704 195.304 250.828 194.824 251.802L188.596 241.848C188.529 241.741 188.459 241.609 188.509 241.492C188.591 241.302 188.866 241.361 189.049 241.45L191.609 242.708C191.845 242.824 192.088 242.945 192.261 243.147ZM257.813 193.937C257.757 194.472 257.943 195.027 258.307 195.414C258.781 195.658 259.283 195.423 259.793 195.184C260.031 195.072 260.27 194.96 260.509 194.896C260.946 194.777 261.408 194.822 261.859 194.868L267.391 195.431C267.732 194.89 267.035 194.29 266.443 194.076C263.682 193.074 260.602 193.024 257.813 193.937ZM287.963 204.164C285.711 207.707 282.189 210.379 278.227 211.549L278.191 212.461C282.605 211.45 286.613 208.683 289.188 204.869C289.484 204.429 289.727 203.744 289.301 203.436C288.837 203.101 288.273 203.676 287.963 204.164ZM279.063 195.139C278.523 194.985 277.794 194.842 277.532 195.35C278.472 196.226 279.527 197.152 280.796 197.191C281.704 197.219 282.557 196.781 283.364 196.354C285.263 195.35 287.179 194.334 288.823 192.935C288.761 192.344 288.009 192.069 287.46 192.258C287.004 192.415 286.653 192.771 286.307 193.122C286.269 193.161 286.231 193.199 286.194 193.237L286.159 193.271C286.138 193.293 286.116 193.314 286.095 193.335C284.266 195.123 281.498 195.833 279.063 195.139ZM274.024 207.173C274.17 207.421 274.352 207.684 274.627 207.749C274.824 207.796 275.027 207.73 275.219 207.665L278.211 206.651C278.211 206.289 277.834 206.038 277.482 206.002C277.286 205.982 277.089 206.006 276.892 206.03C276.737 206.049 276.582 206.068 276.427 206.065C275.229 206.046 274.396 204.8 274.097 203.61C273.992 203.196 273.925 202.769 273.857 202.344L273.857 202.344L273.857 202.343V202.343C273.731 201.547 273.605 200.752 273.24 200.045C272.55 200.011 272.299 200.969 272.343 201.676C272.464 203.611 273.045 205.514 274.024 207.173ZM265.524 200.393C266.226 199.615 267.277 198.579 268.08 199.247C266.713 201.997 263.733 203.816 260.725 203.737C262.389 206.963 263.463 210.509 263.874 214.135C263.946 214.772 264.343 215.315 264.745 215.806C266.772 218.283 269.376 220.375 272.424 221.204C278.062 222.737 284.123 219.579 287.805 214.938C291.487 210.296 293.273 204.413 294.91 198.67C295.382 197.012 296.084 195.102 297.706 194.637C299.459 194.135 300.919 192.668 301.446 190.881C301.973 189.093 301.549 187.043 300.36 185.628C299.016 184.029 296.117 183.57 295.093 185.401C294.695 186.113 293.722 186.278 292.962 186.023C292.346 185.818 291.826 185.408 291.308 185.002C291.186 184.906 291.065 184.81 290.942 184.717C286.956 181.701 281.637 181.529 276.683 181.476C275.115 181.46 273.528 181.445 272.005 181.825C270.23 182.267 268.647 183.213 267.059 184.162L267.059 184.163C265.829 184.898 264.596 185.635 263.269 186.14C259.384 187.619 254.775 186.895 251.501 184.289C255.057 190.063 258.026 196.217 260.344 202.619C262.273 202.679 264.213 201.846 265.524 200.393ZM212.585 184.265C212.791 184.945 213.098 185.595 213.403 186.242C213.88 187.254 214.355 188.261 214.442 189.371C214.584 191.191 212.723 193.273 211.22 192.296C209.66 191.282 207.356 192.233 206.629 193.975C205.901 195.717 206.59 197.859 207.977 199.11C209.024 200.055 210.374 200.55 211.69 201.024C213.279 201.598 215.07 202.371 216.93 203.173C221.624 205.199 226.757 207.415 230.198 207.085C231.921 206.921 235.131 204.99 236.224 204.295C238.308 202.969 240.723 201.589 243.081 202.278C246.052 203.147 249.325 202.88 252.125 201.541C253.491 200.888 254.757 202.602 255.316 204.037C255.875 205.472 256.989 207.24 258.417 206.747C259.205 206.475 259.629 205.547 259.604 204.695C259.579 203.842 259.205 203.047 258.84 202.281L252.195 188.372C250.422 188.882 248.849 187.827 247.229 186.741C246.128 186.003 245.005 185.25 243.784 184.966C243.171 184.823 242.54 184.803 241.91 184.782C241.254 184.761 240.598 184.74 239.963 184.581C239.283 184.411 238.648 184.088 238.016 183.766C237.245 183.373 236.476 182.982 235.63 182.87C233.813 182.629 232.079 183.735 230.755 185.034C230.32 185.461 229.908 185.915 229.496 186.369C228.654 187.297 227.813 188.223 226.783 188.913C225.249 189.94 223.073 190.309 221.652 189.123C221.103 188.665 220.736 188.038 220.368 187.409L220.368 187.409C220.186 187.098 220.003 186.787 219.799 186.495C218.221 184.248 215.11 183.286 212.585 184.265ZM206.696 231.603C207.314 233.491 208.581 235.144 210.016 236.486C210.329 236.779 210.686 237.062 211.046 237.348C212.227 238.284 213.436 239.243 213.231 240.656C215.893 237.771 219.872 236.223 223.729 236.574C224.361 236.632 224.987 236.737 225.613 236.842C226.284 236.955 226.954 237.067 227.632 237.121C232.441 237.504 236.953 234.944 241.129 232.468L250.126 227.132C250.821 225.651 250.283 223.801 249.209 222.58C248.135 221.359 246.626 220.649 245.13 220.058C243.509 219.417 241.82 218.873 240.083 218.836C239.996 218.835 239.908 218.833 239.818 218.832C239.739 218.831 239.658 218.83 239.577 218.83C237.973 218.814 236.111 218.795 235.558 217.331C234.746 215.179 232.762 213.539 230.539 213.181C228.316 212.824 225.939 213.762 224.523 215.556C223.215 217.213 221.167 217.96 219.186 218.683L219.185 218.683C218.946 218.77 218.709 218.856 218.474 218.944C215.823 219.934 213.274 221.213 210.885 222.752C208.881 224.042 206.809 225.842 206.696 228.266C206.684 228.533 206.656 228.82 206.628 229.115L206.628 229.116C206.547 229.961 206.459 230.878 206.696 231.603ZM297.27 217.092C301.012 214.099 304.289 210.371 306.218 205.924C308.148 201.477 308.633 196.264 306.956 191.71C305.959 189.003 304.255 186.627 302.377 184.467C299.116 180.717 294.85 177.342 289.952 177.272C288.319 177.249 286.705 177.598 285.107 177.946L275.841 179.961C281.091 179.86 286.357 180.738 291.306 182.538L291.346 182.552C292.46 182.958 293.677 183.401 294.781 182.976C297.493 181.932 300.845 183.09 302.388 185.605C303.93 188.119 303.499 191.72 301.408 193.776C300.986 194.192 300.51 194.545 300.035 194.898C299.509 195.288 298.983 195.678 298.53 196.152C297.176 197.569 296.623 199.549 296.086 201.473C296.024 201.695 295.962 201.916 295.9 202.135C292.695 213.338 284.338 223.591 273.205 226.021C281.874 225.737 290.43 222.562 297.27 217.092ZM287.166 176.707C290.003 176.385 292.948 176.093 295.648 177.042C298.117 177.911 300.137 179.735 302.087 181.516L304.909 184.094C300.702 177.219 292.928 172.796 285.015 172.776C281.21 172.766 277.453 173.703 273.867 175.011C272.727 175.427 271.6 175.88 270.473 176.334L270.473 176.334C270.089 176.489 269.705 176.643 269.32 176.797C265.132 178.464 260.793 179.971 256.303 180.084C251.813 180.196 247.095 178.73 244.128 175.271C243.997 175.119 243.867 174.961 243.738 174.803L243.738 174.803C243.105 174.033 242.461 173.247 241.544 172.935C244.172 176.409 246.854 179.937 250.363 182.462C253.871 184.988 258.396 186.405 262.509 185.167C264.371 184.607 266.026 183.553 267.684 182.497C268.439 182.016 269.194 181.535 269.969 181.101C275.188 178.175 281.255 177.376 287.166 176.707ZM223.637 257.327C223.803 258.051 224.589 258.776 225.184 258.351C228.295 256.131 231.417 253.904 234.787 252.126C235.149 251.935 235.516 251.748 235.883 251.561C237.716 250.626 239.563 249.683 240.971 248.178C238.922 249.202 236.501 249.047 234.269 248.573C233.556 248.422 232.848 248.241 232.14 248.06L232.139 248.06C230.63 247.674 229.121 247.288 227.572 247.194C225.623 247.077 223.647 247.435 221.856 248.232C220.778 248.711 219.719 249.396 219.167 250.46C218.614 251.523 218.745 253.029 219.711 253.716C220.159 254.036 220.726 254.153 221.284 254.268C222.019 254.42 222.738 254.568 223.152 255.173C223.427 255.576 223.477 256.071 223.528 256.57C223.554 256.825 223.58 257.081 223.637 257.327ZM270.49 223.113C269.615 222.573 268.907 221.797 268.212 221.031L264.797 217.273L265.195 223.49C265.234 224.091 265.27 224.71 265.084 225.281C264.897 225.852 264.43 226.37 263.845 226.419C263.536 226.444 263.529 226.971 263.795 227.134C264.06 227.297 264.398 227.207 264.693 227.112L272.747 224.538C273.246 224.378 273.761 224.209 274.151 223.852C272.897 224.05 271.577 223.784 270.49 223.113ZM287.538 187.218C284.874 187.036 282.222 187.595 279.609 188.152C278.925 188.297 278.236 188.445 277.594 188.727C276.098 189.387 274.999 190.715 273.956 191.998C273.801 192.189 273.637 192.409 273.662 192.656C273.705 193.075 274.282 193.224 274.642 193.02C274.94 192.851 275.129 192.546 275.314 192.246C275.352 192.184 275.39 192.123 275.428 192.063C276.798 189.939 279.498 189.287 281.936 188.806C284.002 188.399 286.13 187.992 288.194 188.406C288.554 188.478 288.758 187.905 288.535 187.605C288.313 187.305 287.904 187.243 287.538 187.218Z" fill="#1E1E1E"/>
</svg>
