<svg width="426" height="413" viewBox="0 0 426 413" fill="none" xmlns="http://www.w3.org/2000/svg">
<path fill-rule="evenodd" clip-rule="evenodd" d="M83.1957 298.89C32.2132 264.6 93.2723 219.163 78.3569 164.831C63.4415 110.5 27.3113 29.4902 169.848 58.356C314.268 87.6031 405.864 125.263 384.218 241.917C362.572 358.57 134.178 333.179 83.1957 298.89Z" fill="#333365"/>
<path fill-rule="evenodd" clip-rule="evenodd" d="M304.48 345.858C301.283 342.768 299.769 338.448 298.356 334.292C294.654 339.488 286.391 339.655 280.716 336.555C275.042 333.454 271.212 328.039 267.138 323.112C259.842 314.291 228.592 292.506 228.079 285.933C227.806 282.448 238.262 276.102 238.262 276.102L219.473 265.384C219.473 265.384 209.728 272.631 204.125 273.493C188.539 275.889 177.514 274.463 177.501 277.182C177.453 287.023 238.864 336.946 219.281 336.555C189.891 335.967 136.212 280.509 118.824 276.102C111.542 274.256 61.5977 277.182 61.5977 265.462C61.5977 249.721 106.208 238.89 106.208 238.89C106.208 238.89 94.5814 200.88 108.654 169.797C111.876 162.678 115.867 154.407 116.256 147.413C116.362 145.494 172.622 93.8302 179.85 91.2492C196.702 85.2313 214.628 82.0509 232.586 81.8928C234.98 81.8717 303.239 91.2492 333.934 140.368C339.481 149.245 364.68 215.168 339.096 256.521C335.059 263.045 335.554 271.142 338.345 278.324C341.135 285.507 344.566 293.496 341.404 300.532C339.677 289.259 336.644 278.174 332.381 267.554C326.435 271.744 329.446 280.761 332.99 287.003C337.457 294.871 341.923 302.738 346.39 310.606C348.248 313.877 350.168 317.483 349.5 321.161C348.736 325.367 344.87 328.277 341.289 330.764C333.114 336.444 324.939 342.123 316.764 347.803C313.095 350.352 307.676 348.948 304.48 345.858Z" fill="white"/>
<path fill-rule="evenodd" clip-rule="evenodd" d="M194.047 171.776C194.673 170.133 196.927 169.454 198.59 170.139C200.253 170.824 201.285 172.536 201.546 174.269C201.807 176.002 201.411 177.764 200.902 179.445C200.438 180.977 199.878 182.483 199.226 183.949C199.165 184.086 199.084 184.238 198.935 184.271C198.776 184.306 198.629 184.186 198.515 184.073C195.689 181.298 193.985 177.475 193.837 173.578C193.814 172.97 193.83 172.347 194.047 171.776ZM198.932 172.177C198.469 171.791 197.87 171.539 197.259 171.557C195.834 171.599 194.84 173.106 194.872 174.488C194.904 175.87 195.663 177.124 196.4 178.307C196.927 179.155 197.455 180.002 197.983 180.849C198.163 181.138 198.517 181.468 198.797 181.268C198.91 181.187 198.954 181.046 198.99 180.914C199.206 180.145 199.422 179.375 199.638 178.605C199.947 177.504 200.259 176.386 200.239 175.245C200.22 174.105 199.825 172.919 198.932 172.177L198.932 172.177Z" fill="#BEBFEF"/>
<path fill-rule="evenodd" clip-rule="evenodd" d="M198 176.6C197.653 176.695 197.274 176.677 196.938 176.55C196.286 176.304 195.836 175.626 195.873 174.949C195.911 174.272 196.434 173.645 197.11 173.469C198.133 173.201 199.286 174.115 199.218 175.141C199.174 175.807 198.662 176.419 198 176.6Z" fill="#BEBFEF"/>
<path fill-rule="evenodd" clip-rule="evenodd" d="M216.657 337.663C217.826 337.812 217.394 339.572 216.636 340.447C209.392 348.808 199.934 355.35 189.422 359.271C187.065 360.151 184.626 360.906 182.107 361.074C177.434 361.387 172.779 359.617 169.084 356.827C165.389 354.037 162.573 350.286 160.278 346.327C154.003 335.501 151.373 322.727 152.879 310.395C153.021 309.234 153.837 307.695 154.94 308.166C154.62 312.289 154.571 316.432 154.792 320.561C155.009 324.616 155.492 328.683 156.693 332.574C157.805 336.175 159.516 339.574 161.3 342.912C163.134 346.344 165.078 349.765 167.726 352.654C170.374 355.543 173.812 357.89 177.723 358.639C182.626 359.578 187.658 357.94 192.178 355.874C201.552 351.589 209.962 345.333 216.657 337.663Z" fill="#1E1E1E"/>
<path fill-rule="evenodd" clip-rule="evenodd" d="M250.573 290.673C259.087 282.553 267.6 274.432 276.114 266.312C276.591 265.857 277.296 265.372 277.86 265.72C278.612 266.186 278.011 267.304 277.377 267.912C268.213 276.698 259.05 285.484 249.887 294.27C249.226 293.946 249.034 293.07 249.267 292.388C249.5 291.707 250.045 291.177 250.573 290.673H250.573Z" fill="#1E1E1E"/>
<path fill-rule="evenodd" clip-rule="evenodd" d="M185.397 243.97C184.878 244.057 184.359 244.144 183.84 244.231C182.833 242.765 181.802 241.244 181.485 239.51C181.169 237.776 181.761 235.757 183.349 234.901C185.146 233.933 185.688 231.552 185.115 229.638C184.543 227.724 183.125 226.173 181.736 224.704C180.325 223.211 178.063 221.627 176.388 222.836C175.296 223.624 173.662 223.178 172.685 222.26C171.708 221.342 171.191 220.072 170.559 218.904C169.364 216.693 167.62 214.698 165.34 213.539C163.059 212.38 160.205 212.15 157.91 213.281C155.632 214.404 154.196 216.637 152.255 218.247C150.314 219.857 147.109 220.711 145.36 218.906C144.916 218.447 144.617 217.767 144.87 217.187C145.123 216.607 146.104 216.407 146.417 216.959C147.215 218.365 149.421 218.344 150.801 217.457C152.18 216.571 153.043 215.121 154.175 213.95C156.389 211.659 159.753 210.467 162.969 210.833C166.184 211.199 169.172 213.115 170.778 215.841C171.551 217.154 172.028 218.648 173.039 219.8C174.049 220.953 175.885 221.659 177.18 220.817C178.644 219.865 180.553 221.048 181.838 222.217C183.576 223.8 185.27 225.51 186.249 227.618C187.228 229.726 187.383 232.321 186.104 234.272C185.039 235.896 183.001 237.211 183.178 239.128C183.342 240.916 185.464 242.177 185.397 243.97Z" fill="#1E1E1E"/>
<path fill-rule="evenodd" clip-rule="evenodd" d="M207.871 163.481C210.988 164.896 213.761 167.158 215.363 170.111C216.966 173.064 217.292 176.731 215.855 179.763C212.883 186.035 203.434 188.477 202.392 195.305C202.126 197.044 202.487 198.852 202.044 200.556C201.738 201.734 201.067 202.786 200.53 203.884C199.378 206.239 198.835 208.871 198.961 211.474C197.76 212.105 196.348 210.762 196.195 209.447C196.041 208.131 196.584 206.825 196.555 205.501C196.501 203.012 194.515 201.032 192.822 199.161C190.281 196.356 188.074 193.052 187.661 189.341C187.528 188.145 187.584 186.925 187.307 185.752C187.009 184.491 186.34 183.348 185.749 182.188C184.156 179.059 183.078 175.449 184.059 172.092C185.04 168.735 188.696 165.957 192.166 166.881C193.152 167.144 194.116 167.68 195.128 167.534C196.904 167.277 197.62 165.223 198.858 163.962C201.077 161.702 204.956 162.158 207.871 163.481M192.779 196.103C194.747 198.613 196.715 201.123 198.683 203.634C200.94 201.329 200.006 197.602 200.692 194.495C201.627 190.262 205.532 187.388 208.916 184.564C212.3 181.74 215.66 177.875 214.9 173.61C214.289 170.182 211.204 167.746 208.246 165.778C206.578 164.668 204.653 163.552 202.664 163.909C200.653 164.27 199.275 165.998 197.826 167.398C196.377 168.797 194.192 170.013 192.378 169.096C189.826 167.805 186.577 170.007 185.857 172.709C185.137 175.41 186.172 178.237 187.309 180.801C188.446 183.364 189.728 186.021 189.512 188.804C189.302 191.511 191.084 193.942 192.779 196.103Z" fill="#1E1E1E"/>
<path fill-rule="evenodd" clip-rule="evenodd" d="M35.8014 138.448C35.6736 138.112 36.2806 138.018 36.6059 138.186C36.5919 138.535 36.0385 138.712 35.8136 138.439L35.8014 138.448Z" fill="#1E1E1E"/>
<path fill-rule="evenodd" clip-rule="evenodd" d="M271.841 275.914C272.509 276.004 272.864 276.801 272.712 277.439C272.561 278.076 272.066 278.575 271.592 279.04C267.756 282.798 263.921 286.557 260.085 290.315C259.802 290.593 259.469 290.89 259.067 290.878C258.525 290.862 258.171 290.255 258.237 289.734C258.303 289.213 258.657 288.774 258.999 288.368C262.526 284.184 266.354 280.239 270.445 276.57C270.838 276.217 271.311 275.842 271.841 275.914V275.914Z" fill="#1E1E1E"/>
<path fill-rule="evenodd" clip-rule="evenodd" d="M159.066 221.559C161.179 221.745 162.804 223.67 163.166 225.697C163.529 227.723 162.877 229.796 161.993 231.666C161.506 232.696 160.947 233.694 160.319 234.65C159.868 235.339 159.293 236.062 158.463 236.195C157.078 236.418 156.105 234.94 155.57 233.681C154.818 231.909 154.128 230.112 153.501 228.295C153.193 227.402 152.897 226.463 153.054 225.535C153.295 224.116 154.539 223.054 155.843 222.367C156.832 221.846 157.944 221.461 159.066 221.559M157.08 231.996C157.243 232.241 157.415 232.492 157.669 232.647C157.877 232.775 158.133 232.828 158.377 232.796C159.005 232.711 159.409 232.124 159.73 231.594C160.57 230.205 161.433 228.748 161.527 227.14C161.622 225.533 160.68 223.745 159.055 223.414C157.153 223.026 155.382 224.873 155.221 226.75C155.06 228.627 156.032 230.41 157.08 231.996Z" fill="#BEBFEF"/>
<path fill-rule="evenodd" clip-rule="evenodd" d="M158.974 225.368C159.496 225.532 159.946 225.901 160.198 226.373C160.423 226.793 160.49 227.289 160.386 227.751C160.144 228.818 158.9 229.563 157.808 229.295C156.716 229.026 155.988 227.797 156.3 226.748C156.612 225.698 157.902 225.032 158.974 225.368ZM158.733 227.583C159.13 227.38 158.775 226.641 158.359 226.806C158.037 226.847 157.823 227.24 157.97 227.521C158.118 227.803 158.571 227.867 158.796 227.639L158.733 227.583Z" fill="#BEBFEF"/>
<path fill-rule="evenodd" clip-rule="evenodd" d="M270.815 245.562C269.637 244.329 268.578 242.988 267.657 241.564C267.363 241.109 267.973 240.516 268.522 240.587C269.072 240.658 269.476 241.105 269.826 241.521C271.047 242.973 272.267 244.424 273.488 245.876C273.348 246.394 272.673 246.628 272.139 246.491C271.605 246.353 271.191 245.955 270.815 245.562L270.815 245.562Z" fill="#1E1E1E"/>
<path fill-rule="evenodd" clip-rule="evenodd" d="M311.034 312.814C311.048 312.983 310.983 313.148 310.917 313.306C310.246 314.888 309.248 316.339 308 317.548C306.013 319.471 303.321 320.895 302.257 323.414C302.005 324.01 301.066 324.097 300.577 323.659C300.089 323.222 300.021 322.472 300.238 321.862C300.454 321.253 300.901 320.75 301.338 320.265C302.762 318.682 304.186 317.099 305.61 315.516C306.701 314.303 307.84 313.054 309.352 312.389C309.974 312.116 310.982 312.154 311.034 312.814V312.814Z" fill="#1E1E1E"/>
<path fill-rule="evenodd" clip-rule="evenodd" d="M272.267 238.971C273.672 240.572 275.077 242.173 276.483 243.774C276.719 244.043 276.969 244.349 276.953 244.701C276.928 245.25 276.233 245.577 275.682 245.449C275.132 245.321 274.715 244.895 274.346 244.479C273.155 243.14 272.088 241.697 271.163 240.173C270.802 239.579 270.662 238.54 271.367 238.452C271.729 238.406 272.03 238.702 272.267 238.971L272.267 238.971Z" fill="#1E1E1E"/>
<path fill-rule="evenodd" clip-rule="evenodd" d="M256.08 247.895C255.866 247.604 255.645 247.224 255.826 246.913C256.124 246.399 256.934 246.798 257.337 247.239C258.765 248.8 259.981 250.544 260.942 252.411C260.027 252.861 259.053 251.946 258.458 251.135C257.665 250.055 256.872 248.975 256.08 247.895Z" fill="#1E1E1E"/>
<path fill-rule="evenodd" clip-rule="evenodd" d="M257.346 252.492C257.918 253.068 258.496 254.016 257.901 254.57C257.295 255.133 256.326 254.498 255.791 253.871C254.496 252.355 253.369 250.704 252.438 248.955C253.036 248.458 253.921 249.036 254.467 249.587C255.427 250.555 256.386 251.523 257.346 252.492Z" fill="#1E1E1E"/>
<path fill-rule="evenodd" clip-rule="evenodd" d="M258.904 246.816C258.645 246.447 258.402 245.94 258.683 245.587C259.083 245.082 259.897 245.546 260.345 246.011C261.646 247.362 262.946 248.714 264.247 250.065C264.189 250.553 263.598 250.846 263.097 250.773C262.595 250.701 262.177 250.374 261.801 250.044C260.708 249.084 259.733 247.998 258.904 246.816L258.904 246.816Z" fill="#1E1E1E"/>
<path fill-rule="evenodd" clip-rule="evenodd" d="M267.102 243.819C267.912 244.821 268.722 245.823 269.531 246.824C269.852 247.222 270.191 247.731 269.982 248.193C269.78 248.639 269.142 248.756 268.681 248.565C268.22 248.373 267.897 247.968 267.596 247.579C266.75 246.485 265.913 245.386 265.084 244.281C264.901 244.037 264.709 243.763 264.737 243.462C264.783 242.961 265.444 242.701 265.938 242.854C266.432 243.007 266.782 243.424 267.102 243.819H267.102Z" fill="#1E1E1E"/>
<path fill-rule="evenodd" clip-rule="evenodd" d="M266.492 248.439C266.66 248.616 266.839 248.823 266.821 249.063C266.797 249.383 266.41 249.581 266.082 249.534C265.755 249.486 265.484 249.269 265.238 249.055C263.622 247.646 262.26 245.964 261.232 244.107C261.434 243.597 262.23 243.943 262.611 244.346C263.905 245.71 265.198 247.074 266.492 248.439Z" fill="#1E1E1E"/>
<path fill-rule="evenodd" clip-rule="evenodd" d="M282.187 239.406C282.313 239.546 282.446 239.707 282.438 239.893C282.427 240.174 282.082 240.351 281.796 240.303C281.51 240.255 281.279 240.058 281.066 239.867C279.544 238.504 278.089 237.071 276.706 235.576C277.195 234.939 278.227 235.45 278.821 235.997C279.998 237.08 281.121 238.219 282.187 239.406V239.406Z" fill="#1E1E1E"/>
<path fill-rule="evenodd" clip-rule="evenodd" d="M277.366 240.768C276.515 239.638 275.664 238.508 274.813 237.378C274.657 237.171 274.493 236.919 274.577 236.676C274.742 236.197 275.491 236.41 275.895 236.729C277.174 237.742 278.261 238.983 279.082 240.372C279.241 240.642 279.395 240.961 279.282 241.251C279.138 241.621 278.615 241.73 278.24 241.576C277.865 241.421 277.606 241.087 277.366 240.768L277.366 240.768Z" fill="#1E1E1E"/>
<path fill-rule="evenodd" clip-rule="evenodd" d="M284.156 236.616C283.316 235.74 282.475 234.863 281.635 233.987C281.335 233.675 281.697 233.121 282.135 233.075C282.572 233.03 282.972 233.298 283.319 233.56C283.956 234.043 284.571 234.554 285.161 235.091C285.487 235.388 285.818 235.713 285.941 236.13C286.064 236.548 285.895 237.078 285.472 237.219C284.985 237.382 284.507 236.982 284.156 236.616L284.156 236.616Z" fill="#1E1E1E"/>
<path fill-rule="evenodd" clip-rule="evenodd" d="M282.525 238.351C281.362 237.194 280.247 235.991 279.186 234.746C279.001 234.529 278.806 234.262 278.885 233.991C278.974 233.685 279.386 233.566 279.696 233.668C280.007 233.77 280.234 234.023 280.445 234.266C281.417 235.381 282.39 236.497 283.362 237.612C283.625 237.914 283.884 238.389 283.585 238.658C283.284 238.929 282.812 238.636 282.525 238.351V238.351Z" fill="#1E1E1E"/>
<path fill-rule="evenodd" clip-rule="evenodd" d="M337.869 309.854C339.182 309.461 342.506 308.587 343.819 308.194C344.408 308.018 345.283 307.995 345.393 308.583C345.484 309.066 344.91 309.395 344.43 309.551C343.104 309.983 339.721 310.765 338.332 310.928C337.837 310.986 337.119 310.807 337.219 310.334C337.277 310.062 337.595 309.936 337.869 309.854Z" fill="#1E1E1E"/>
<path fill-rule="evenodd" clip-rule="evenodd" d="M191.145 256.614C193.224 256.643 195.682 257.112 196.511 258.961C197.29 260.697 196.065 262.784 194.348 263.685C192.63 264.586 190.584 264.609 188.631 264.606C161.986 264.573 135.342 263.949 108.727 262.736C107.068 262.661 106.911 260.34 107.29 258.773C107.516 257.838 107.77 256.852 108.466 256.168C109.468 255.184 111.056 255.117 112.482 255.112C131.615 255.053 150.784 254.994 169.836 256.701C172.854 256.971 175.875 257.286 178.906 257.258C182.993 257.219 187.058 256.556 191.145 256.614M194.129 261.303C194.575 260.458 193.918 259.384 193.025 258.996C192.131 258.608 191.104 258.709 190.129 258.802C177.639 259.993 165.064 258.618 152.535 257.908C143.428 257.392 134.304 257.228 125.184 257.064C121.382 256.995 117.579 256.927 113.777 256.858C112.564 256.836 111.236 256.852 110.304 257.605C109.372 258.358 109.341 260.133 110.497 260.488C110.706 260.552 110.928 260.563 111.147 260.573C137.916 261.835 164.72 262.401 191.52 262.271C192.502 262.266 193.681 262.15 194.129 261.303V261.303Z" fill="#1E1E1E"/>
<path fill-rule="evenodd" clip-rule="evenodd" d="M174.135 277.494C176.511 282.536 181.63 286.269 187.286 287.084C189.947 287.468 191.763 289.814 193.279 291.969C194.854 294.209 196.009 298.006 193.406 298.995C203.511 309.798 213.616 320.601 223.721 331.405C224.895 332.66 226.036 334.755 224.674 335.817C224.169 336.212 223.476 336.274 222.828 336.295C214.502 336.565 206.646 332.787 199.441 328.734C189.066 322.897 179.156 316.282 169.83 308.967C163.017 303.623 153.229 302.095 145.029 305.094C140.775 306.65 135.442 303.478 134.946 299.096C134.449 294.715 138.945 290.496 143.446 291.12C136.679 281.386 124.577 275.37 112.474 275.725C97.8673 276.152 83.2019 274.667 69.0016 271.32C67.7544 271.026 66.4151 270.659 65.6328 269.673C64.0729 267.706 65.7093 264.909 67.4239 263.067C80.0565 249.494 99.4943 242.172 118.265 243.915C119.065 243.989 119.5 243.047 119.688 242.29C124.459 223.01 129.231 203.731 134.003 184.452C134.578 182.127 138.228 181.806 140.036 183.431C141.845 185.056 142.242 187.648 142.451 190.03C144.005 207.788 141.291 226.906 150.397 242.388C150.821 243.109 151.3 243.848 152.045 244.257C152.779 244.66 153.663 244.685 154.507 244.7C171.366 244.989 188.225 245.279 205.085 245.568C207.185 245.604 209.764 245.362 210.613 243.499C212.788 238.724 214.962 233.95 217.137 229.175C217.829 227.656 218.783 225.933 220.476 225.683C222.901 225.324 224.435 228.277 224.357 230.655C224.278 233.032 223.453 235.557 224.534 237.692C228.495 233.611 232.523 229.477 237.475 226.588C242.428 223.698 248.512 222.163 254.065 223.716C249.155 231.284 244.245 238.853 239.335 246.422C243.436 249.052 243.76 255.706 239.932 258.699C238.297 259.977 239.594 262.499 240.948 264.054C245.19 268.928 249.431 273.803 253.673 278.677C250.053 280.304 245.836 278.629 242.276 276.881C235.914 273.756 229.704 270.34 223.673 266.65C220.746 264.859 217.52 268.217 214.864 270.367C210.647 273.782 204.825 274.462 199.359 275.002C190.951 275.832 182.543 276.663 174.135 277.494ZM188.801 266.899C193.966 267.173 199.23 267.52 204.242 266.278C209.374 265.007 214.045 262.048 217.306 258.001C218.098 257.018 219.485 256.74 220.753 256.529C225.129 255.799 229.738 255.085 233.919 256.537C235.805 257.192 238.106 256.442 239.202 254.816C240.297 253.19 240.081 250.845 238.704 249.434C237.214 249.394 236.943 251.444 236.153 252.669C235.115 254.278 232.85 254.541 230.895 254.636C223.721 254.986 216.546 255.335 209.372 255.685C207.631 255.77 205.231 255.279 205.284 253.589C205.307 252.845 205.867 252.231 206.416 251.711C208.342 249.888 210.541 248.336 212.922 247.119C183.792 247.333 154.658 247.015 125.54 246.167C111.222 245.749 95.9541 245.433 83.7537 252.71C82.6148 253.39 81.7242 255.393 83.0458 255.591C86.9376 256.173 90.8295 256.755 94.7213 257.337C95.1849 257.407 95.6807 257.491 96.0163 257.809C97.022 258.761 95.613 260.293 94.3173 260.821C88.9712 263.003 82.6006 262.67 77.5274 259.944C76.3777 259.326 75.0137 258.575 73.8423 259.153C72.4272 259.852 72.6216 262.057 73.822 263.065C75.0224 264.074 76.732 264.215 78.3171 264.31C92.5567 265.162 106.796 266.014 121.036 266.866C125.038 267.105 129.053 267.345 133.056 267.103C151.612 265.982 170.236 265.913 188.801 266.899ZM209.587 320.416C204.603 313.768 198.926 307.609 192.671 302.063C190.622 300.247 188.818 298.192 187.02 296.142C179.157 287.181 171.295 278.219 163.432 269.258C162.647 268.364 161.29 268.246 160.08 268.209C149.753 267.891 139.392 268.635 129.226 270.424C128.474 270.556 127.663 270.727 127.167 271.29C126.016 272.596 127.454 274.503 128.803 275.617C142.301 286.759 156.295 297.336 170.733 307.31C173.39 309.145 176.088 310.974 179.088 312.216C184.749 314.56 190.41 316.904 196.071 319.247C200.403 321.041 205.566 322.794 209.587 320.416ZM141.983 221.476C141.775 218.858 141.774 216.194 141.032 213.669C139.695 209.12 136.13 205.548 132.582 202.302C132.307 202.05 131.943 201.779 131.588 201.905C131.264 202.019 131.147 202.396 131.073 202.722C128.429 214.398 125.784 226.073 123.14 237.749C122.641 239.953 122.139 242.187 122.247 244.441C131.518 244.554 140.79 244.667 150.061 244.781C145.442 237.817 142.639 229.731 141.983 221.476ZM250.922 225.353C245.162 224.876 239.231 226.928 235.084 230.832C227.489 237.983 219.379 244.62 210.832 250.677C209.662 251.506 208.408 252.426 208.011 253.777C215.172 253.464 222.333 253.151 229.493 252.838C231.382 252.755 233.605 252.481 234.508 250.87C239.449 242.058 244.933 233.532 250.922 225.353ZM67.1247 266.691C66.9296 267.096 66.7567 267.546 66.8651 267.98C67.0566 268.748 67.9813 269.067 68.7729 269.254C84.7833 273.02 101.393 273.505 117.861 273.972C119.5 274.019 121.2 274.054 122.705 273.423C124.209 272.792 125.46 271.292 125.215 269.721C114.511 268.283 103.706 267.546 92.8992 267.517C86.4253 267.5 79.767 267.707 73.6979 265.523C72.2338 264.996 70.5768 263.94 70.7633 262.436C69.2041 263.524 67.9385 265.004 67.1247 266.691ZM219.794 263.888C219.219 262.68 217.601 262.233 216.259 262.512C214.917 262.791 213.777 263.615 212.652 264.376C210.055 266.135 207.246 267.686 204.164 268.394C201.476 269.012 198.68 268.968 195.919 268.92C185.838 268.747 175.757 268.574 165.676 268.401C167.921 271.648 170.998 275.297 175.006 274.87C182.848 274.035 190.791 274.234 198.595 273.118C206.399 272.001 214.306 269.382 219.794 263.888ZM243.117 272.249C243.484 272.201 243.912 272.082 244.027 271.741C244.124 271.454 243.947 271.155 243.775 270.904C240.871 266.669 237.295 262.913 233.735 259.178C233.192 258.608 232.626 258.022 231.888 257.721C231.125 257.409 230.265 257.439 229.439 257.499C226.062 257.744 222.718 258.412 219.516 259.48C219.255 259.567 218.951 259.707 218.921 259.974C218.898 260.181 219.058 260.361 219.209 260.51C222.573 263.825 226.781 266.194 230.935 268.522C234.693 270.629 238.815 272.811 243.117 272.249ZM147.387 293.547C147.073 293.312 146.739 293.068 146.346 293.018C146.027 292.978 145.707 293.072 145.4 293.164C144.688 293.378 143.977 293.593 143.265 293.807C142.568 294.016 141.697 294.638 142.099 295.229C143.354 297.071 143.863 299.376 143.497 301.555C143.378 302.262 144.426 302.514 145.163 302.464C148.972 302.203 152.781 301.943 156.59 301.682C156.987 301.655 157.523 301.46 157.43 301.084C154.082 298.572 150.735 296.059 147.387 293.547ZM212.649 243.609C212.381 244.288 213.095 245.025 213.84 245.099C214.585 245.174 215.294 244.809 215.949 244.456C218.309 243.183 220.854 241.704 221.746 239.232C222.036 238.426 222.126 237.568 222.213 236.719C222.364 235.262 222.514 233.805 222.664 232.348C222.697 232.025 222.725 231.675 222.548 231.398C222.372 231.122 221.903 231.01 221.707 231.274C220.915 232.34 219.753 233.143 218.455 233.52C217.893 233.683 217.29 233.776 216.816 234.112C216.253 234.511 215.976 235.179 215.727 235.811C214.701 238.41 213.675 241.01 212.649 243.609ZM189.181 290.295C188.153 288.436 185.32 287.812 183.563 289.057C185.828 290.772 187.105 293.419 189.027 295.491C189.688 296.204 190.548 296.893 191.535 296.83C192.522 296.767 193.338 295.489 192.639 294.81C191.267 293.48 190.098 291.953 189.181 290.295ZM138.831 295.366C137.302 296.813 137.823 299.264 138.454 301.243C138.667 301.91 139.344 302.74 139.907 302.304C140.098 302.156 140.167 301.908 140.224 301.677C140.506 300.54 140.79 299.376 140.664 298.213C140.538 297.051 139.92 295.869 138.831 295.366Z" fill="#1E1E1E"/>
<path fill-rule="evenodd" clip-rule="evenodd" d="M307.888 348.612C304.691 345.522 303.177 341.201 301.764 337.045C298.062 342.241 293.261 345.93 287.587 342.829C281.912 339.729 274.62 330.793 270.546 325.866C263.25 317.044 254.584 309.29 244.929 302.947C250.085 308.431 253.169 315.708 253.478 323.122C257.389 323.083 261.3 323.043 265.211 323.004C252.062 327.348 237.975 329.003 224.136 327.831C231.656 321.7 237.536 313.695 241.053 304.801C240.269 302.394 236.539 302.952 234.36 304.334C232.182 305.717 229.364 307.471 227.266 305.977C224.683 304.138 224.861 298.376 221.794 299.277C213.831 301.616 204.391 296.969 201.641 289.356C199.762 290.494 197.884 291.633 196.006 292.771C195.102 289.95 199.289 287.771 202.111 288.884C204.933 289.996 206.587 292.763 208.544 295.027C210.501 297.29 213.641 299.288 216.434 298.109C221.638 295.911 228.484 299.881 228.949 305.366C232.985 302.226 238.521 300.981 243.57 302.078C240.349 297.554 236.754 293.28 232.831 289.311C235.814 285.458 239.501 282.12 243.67 279.499C241.624 283.249 238.788 286.592 235.387 289.262C252.829 305.841 270.272 322.42 287.714 338.998C288.812 340.042 290.071 341.154 291.608 341.174C293.293 341.197 294.652 339.91 295.8 338.715C303.986 330.199 312.173 321.682 320.359 313.165C322.492 310.946 324.736 308.5 325.056 305.483C325.458 301.694 322.729 298.333 320.124 295.482C309.642 284.01 298.489 273.113 286.737 262.862C281.583 258.366 274.787 253.69 268.303 256.071C260.478 258.944 258.616 270.36 250.58 272.614C252.983 269.412 255.386 266.21 257.789 263.008C253.024 259.667 247.065 252.21 246.755 246.517C250.58 243.139 255.295 240.581 259.206 238.62C255.295 229.693 255.759 227.837 260.989 226.618C266.22 225.399 270.751 224.19 275.557 222.632C288.884 218.311 295.244 197.824 284.058 189.314C277.905 184.633 231.784 138.68 211.982 121.738C213.482 128.223 204.67 134.337 198.823 130.869C199.945 134.607 197.248 139.13 193.265 139.623C189.281 140.116 185.396 135.835 186.79 132.184C187.99 129.041 191.83 127.742 194.059 125.181C196.289 122.621 194.344 116.993 191.314 118.605C189.714 124.85 180.294 127.51 175.484 123.076C173.792 121.515 171.574 121.131 169.306 121.5C166.528 121.952 161.722 122.997 159.667 124.929C156.448 127.954 155.721 132.374 151.888 134.428C151.277 134.755 150.637 135.036 149.96 135.26C145.039 136.885 138.15 132.164 140.705 127.775C126.704 140.291 117.092 157.341 113.788 175.524C121.096 177.544 122.483 186.848 122.463 194.215C114.219 196.242 121.974 211.498 114.844 215.994C106.717 221.118 108.976 233.035 112.195 241.902C103.956 224.712 102.965 204.38 109.494 186.513C108.849 197.848 108.204 209.183 107.558 220.518C113.087 219.734 115.32 213.202 115.777 207.804C116.234 202.405 116.581 196.054 121.263 193.097C119.515 188.778 118.798 184.071 119.184 179.446C117.149 178.809 115.114 178.173 113.08 177.536C111.857 185.882 102.296 189.987 94.4116 193.54C85.8997 197.376 77.8918 202.262 70.6419 208.042C62.8654 214.242 55.4601 222.765 56.3213 232.491C57.1494 241.841 65.4609 248.992 74.1866 253.056C64.8426 253.036 56.8228 244.977 55.3165 236.037C53.8103 227.096 57.8284 217.899 64.1104 211.193C70.3924 204.487 78.7225 199.929 87.1696 196.056C98.2313 190.985 111.649 184.407 112.062 172.551C112.406 162.667 123.587 152.981 118.23 144.565C110.707 132.744 106.51 118.954 106.21 105.067C106.062 98.2156 107.352 90.4602 113.145 86.5337C116.029 84.5788 119.617 83.8962 123.113 83.507C136.079 82.0636 149.436 84.0776 161.336 89.2706C168.36 92.3355 176.03 96.5835 183.258 94.0025C200.11 87.9846 218.036 84.8042 235.994 84.6461C238.388 84.625 240.375 82.9209 242.042 81.2548C248.601 74.699 254.074 67.1131 261.212 61.1527C268.35 55.1922 277.845 50.9012 287.072 52.7459C296.73 54.677 303.941 63.016 307.096 72.0747C310.252 81.1333 310.073 90.9198 309.86 100.479C309.478 117.598 331.626 126.92 337.342 143.121C340.712 152.674 351.831 157.1 361.83 159.918C371.829 162.737 383.03 165.859 388.184 174.631C392.984 182.802 390.611 193.506 384.944 201.137C379.277 208.769 370.887 213.998 362.702 219.042C349.449 227.21 353.169 248.1 342.504 259.274C337.127 264.907 338.962 273.895 341.753 281.078C344.543 288.26 347.974 296.249 344.812 303.285C343.085 292.012 340.052 280.927 335.789 270.307C329.843 274.497 332.854 283.514 336.398 289.757C340.865 297.624 345.331 305.492 349.798 313.359C351.656 316.631 353.576 320.236 352.908 323.914C352.144 328.12 348.278 331.03 344.697 333.518C336.522 339.197 328.347 344.877 320.172 350.556C316.503 353.105 311.084 351.702 307.888 348.612ZM325.335 276.1C324.618 275.318 323.306 275.699 322.326 276.138C321.344 276.578 320.362 277.017 319.38 277.457C319.165 277.553 318.927 277.652 318.699 277.592C318.268 277.478 318.195 276.859 318.466 276.515C318.736 276.171 319.195 276.032 319.62 275.899C320.525 275.614 321.408 275.264 322.259 274.853C322.746 274.618 323.269 274.308 323.401 273.797C323.533 273.285 322.928 272.664 322.48 272.963C321.162 273.844 319.679 274.492 318.126 274.866C317.66 274.978 316.934 274.837 317.043 274.384C317.085 274.21 317.252 274.096 317.408 274.001C318.794 273.157 320.306 272.507 321.883 272.08C322.451 271.926 322.31 271 321.768 270.773C321.227 270.545 320.609 270.775 320.069 271.004C318.762 271.556 317.455 272.109 316.148 272.661C315.867 272.78 315.553 272.935 315.477 273.223C315.41 273.481 315.564 273.74 315.712 273.964C316.662 275.406 317.612 276.848 318.562 278.29C318.707 278.51 318.871 278.745 319.127 278.825C319.405 278.913 319.702 278.791 319.966 278.672C321.775 277.853 323.565 276.996 325.335 276.1ZM236.037 119.236C232.96 119.287 230.65 115.896 231.223 112.965C231.795 110.034 234.513 107.841 237.456 106.972C241.456 105.791 246.232 106.482 249.42 103.86C250.852 102.682 251.726 100.99 253.031 99.6793C255.873 96.8235 260.819 96.2192 264.304 98.302C265.086 96.3115 262.771 94.3869 260.604 94.0324C258.438 93.678 256.102 94.1013 254.106 93.2104C250.6 91.6454 246.471 93.6559 243.665 96.2254C240.859 98.7949 238.558 102.032 235.099 103.693C231.641 105.355 226.408 104.428 225.457 100.801C225.16 99.6712 225.124 98.1738 223.987 97.7928C222.194 97.1918 221.261 95.1623 221.368 93.326C221.474 91.4896 222.382 89.7992 223.271 88.1741C219.757 88.0024 216.229 88.1081 212.732 88.4899C211.894 88.5815 210.828 88.9247 210.829 89.7429C210.833 91.4339 209.214 92.6469 207.759 93.5793C204.679 95.5528 201.599 97.5263 198.52 99.4998C198.617 101.471 201.614 101.943 203.37 100.944C205.126 99.946 206.363 98.1614 208.256 97.4359C209.267 97.0484 210.377 97.0008 211.463 96.958C213.319 96.8848 215.174 96.8116 217.03 96.7384C219.407 96.6447 222.615 97.2299 222.74 99.5335C222.843 101.423 220.68 102.527 219.295 103.859C216.142 106.893 216.153 112.764 212.015 114.33C210.545 114.886 210.149 116.861 210.794 118.258C211.439 119.654 212.784 120.604 214.057 121.509C236.27 137.311 274.967 178.048 275.814 178.157C276.661 178.266 277.654 177.677 277.606 176.85C277.484 174.713 277.365 172.536 277.905 170.46C278.444 168.384 279.753 166.386 281.772 165.517C283.632 164.717 286.339 164.536 286.742 162.602C287.643 158.275 292.111 154.929 296.657 155.177C298.891 155.298 301.355 156.125 303.214 154.918C301.715 153.54 299.5 153.255 297.641 152.38C295.783 151.505 294.148 149.289 295.258 147.6C296.898 145.105 294.509 141.843 295.001 138.924C295.209 137.684 295.931 136.587 296.694 135.573C299.281 132.135 302.55 129.18 306.268 126.918C307.132 126.392 307.349 125.284 307.485 124.303C307.814 121.936 308.142 119.568 308.471 117.2C308.7 115.548 308.856 113.653 307.687 112.431C303.882 108.454 297.547 108.324 291.955 108.501C286.363 108.678 280.044 108.608 276.171 104.694C274.968 103.48 272.773 103.893 271.469 105.004C270.164 106.116 269.444 107.717 268.473 109.113C265.441 113.474 259.57 115.785 254.26 114.708C251.416 114.132 248.548 112.679 245.756 113.457C242.033 114.494 239.909 119.172 236.037 119.236ZM342.906 226.569C343.076 227.171 343.326 227.858 343.935 228.061C344.424 228.223 344.95 228.001 345.415 227.784C346.96 227.063 348.505 226.341 350.05 225.62C350.843 225.25 351.733 224.759 351.874 223.916C354.735 206.838 353.906 189.187 349.458 172.431C348.406 168.468 347.151 164.547 345.479 160.79C343.343 155.991 340.545 151.499 337.672 147.076C333.537 140.71 329.229 134.449 324.752 128.304C323.921 129.56 323.674 131.081 323.252 132.515C322.829 133.95 322.121 135.437 320.762 136.136C319.403 136.835 317.315 136.242 317.074 134.768C316.553 131.583 313.028 129.175 309.758 129.771C309.055 129.899 308.823 130.747 308.735 131.435C307.94 137.692 307.144 143.948 306.348 150.204C306.29 150.659 306.266 151.201 306.635 151.487C306.942 151.725 307.381 151.672 307.774 151.667C309.999 151.634 311.94 153.887 311.51 156.004C311.08 158.12 308.403 159.492 306.357 158.645C305.474 158.279 304.782 159.44 304.561 160.346C303.224 165.815 301.888 171.284 300.552 176.753C300.157 178.366 301.594 179.889 303.14 180.598C304.685 181.307 306.452 181.563 307.87 182.489C311.422 184.809 311.269 190.084 314.142 193.164C316.482 195.673 320.813 196.129 323.654 194.166C326.197 192.41 327.302 189.203 327.303 186.176C327.304 184.112 328.626 182.103 330.556 181.232C332.486 180.361 334.923 180.675 336.552 182.003C338.139 183.297 338.858 185.308 339.508 187.216C339.795 188.058 340.082 188.977 339.774 189.811C339.271 191.177 337.54 191.581 336.125 192.05C333.527 192.91 331.249 194.654 329.782 196.905C329.066 198.003 328.581 199.544 329.467 200.519C331.633 202.901 333.798 205.283 335.964 207.665C337.096 208.911 338.263 210.216 338.717 211.817C340.113 216.734 341.509 221.652 342.906 226.569ZM122.309 148.259C125.703 142.119 129.13 135.93 133.74 130.586C137.778 125.907 142.64 121.972 147.496 118.091C153.894 112.979 160.331 107.912 166.806 102.892C169.501 100.802 172.238 98.699 175.38 97.3151C165.96 93.2907 156.48 89.2462 146.478 86.8823C136.477 84.5183 125.824 83.902 115.956 86.7426C115.005 87.0162 114.05 87.3276 113.23 87.8674C111.844 88.779 110.968 90.2556 110.312 91.7493C107.731 97.6197 107.876 104.271 108.715 110.6C110.478 123.888 115.141 136.806 122.309 148.259ZM335.004 330.495C334.915 331.387 333.923 332.225 333.09 331.838C332.696 331.655 332.456 331.266 332.239 330.899C328.917 325.275 325.594 319.652 322.272 314.028C320.128 314.81 319.097 317.316 319.338 319.524C319.579 321.733 320.794 323.713 321.979 325.613C323.793 328.52 325.607 331.426 327.42 334.332C326.467 335.284 324.931 334.019 324.225 332.882C321.708 328.832 319.192 324.781 316.675 320.731C311.868 325.524 307.062 330.317 302.255 335.11C305.385 339.854 308.516 344.597 311.646 349.341C312.384 350.459 313.963 350.816 315.301 350.535C316.639 350.254 317.795 349.467 318.911 348.698C327.3 342.914 335.689 337.129 344.078 331.345C344.716 330.905 345.399 330.403 345.586 329.666C345.782 328.896 345.375 328.115 344.98 327.419C326.004 293.951 305.75 261.163 284.276 229.144C283.644 228.202 282.844 227.161 281.687 227.086C280.916 227.037 280.201 227.444 279.542 227.837C271.025 232.918 262.508 237.999 253.991 243.08C252.414 244.021 250.837 244.962 249.26 245.903C248.85 246.148 248.408 246.431 248.271 246.879C248.108 247.408 248.431 247.952 248.741 248.415C251.844 253.036 255.119 257.547 258.558 261.938C262.622 257.697 267.458 253.129 273.428 253.273C278.581 253.397 282.833 257.031 286.587 260.457C288.783 262.461 290.979 264.465 293.175 266.469C289.704 260.165 285.601 254.19 280.942 248.654C280.741 247.722 282.434 247.977 283.086 248.688C289.589 255.779 293.167 265.098 300.014 271.876C307.011 278.803 314.008 285.73 321.005 292.657C323.977 295.599 327.13 298.924 327.365 303.035C327.579 306.79 325.282 310.206 322.974 313.228C327.044 317.886 330.766 322.829 334.103 328.006C334.593 328.766 335.093 329.603 335.004 330.495ZM260.904 88.9469C263.85 89.513 266.8 90.0799 269.691 90.8712C277.136 92.9094 284.058 96.3971 290.92 99.8613C296.909 102.885 302.931 105.928 308.306 109.889C308.89 95.7277 308.311 81.6661 303.451 68.2993C302.049 64.4447 298.664 60.2882 295.371 57.7365C291.504 54.7404 286.137 54.2131 281.237 54.8927C272.677 56.0798 264.881 60.5241 258.46 66.1383C252.039 71.7525 246.832 78.5263 241.67 85.2516C248.081 86.4833 254.493 87.7151 260.904 88.9469ZM346.891 157.686C355.161 178.142 357.862 200.687 354.648 222.436C365.143 216.605 374.524 208.895 382.175 199.811C385.988 195.284 389.521 189.956 389.273 184.117C389.069 179.319 386.253 174.889 382.535 171.715C378.817 168.541 374.251 166.466 369.662 164.657C362.28 161.747 354.657 159.413 346.891 157.686ZM330.672 192.662C332.615 191.279 334.695 190.077 336.873 189.076C336.867 187.729 336.852 186.337 336.295 185.103C335.737 183.869 334.485 182.824 333.098 182.917C331.641 183.014 330.541 184.305 330.078 185.648C329.616 186.992 329.608 188.441 329.288 189.823C328.403 193.645 324.909 196.765 320.907 197.307C316.905 197.848 312.663 195.776 310.732 192.335C309.175 189.563 308.941 185.975 306.461 183.929C305.087 182.796 303.259 182.361 301.503 181.96C301.095 181.867 300.661 181.775 300.265 181.907C299.628 182.118 299.329 182.808 299.104 183.423C297.601 187.545 296.097 191.666 294.594 195.788C294.038 197.312 293.58 199.261 294.823 200.339C306.301 210.298 310.973 226.137 322.645 235.88C322.991 236.168 323.417 236.469 323.861 236.367C329.429 235.086 334.827 233.112 339.881 230.51C340.284 230.302 340.703 230.074 340.934 229.693C341.168 229.307 341.167 228.832 341.143 228.385C340.977 225.305 340.032 222.268 338.415 219.612C337.651 218.356 336.713 217.116 336.567 215.664C336.442 214.425 336.917 213.154 336.614 211.944C336.366 210.956 335.636 210.159 334.93 209.406C332.937 207.279 330.944 205.153 328.951 203.026C327.965 201.974 326.941 200.852 326.639 199.461C326.05 196.751 328.369 194.3 330.672 192.662ZM205.749 130.046C208.1 128.674 209.525 125.939 209.268 123.29C208.893 119.426 205.46 116.609 202.29 114.237C197.098 110.349 185.223 100.904 180.003 98.8737C174.782 96.8435 151.683 116.819 143.657 124.478C143.251 124.864 142.829 125.286 142.716 125.827C142.603 126.367 140.15 132.183 145.088 133.596C150.027 135.01 150.556 133.921 152.574 132.183C154.591 130.445 155.766 127.98 156.714 125.53C157.523 123.437 159.971 122.436 162.23 121.99C164.489 121.544 166.923 121.378 168.791 120.069C170.736 118.706 173.453 118.785 175.671 119.676C177.889 120.568 179.72 122.153 181.505 123.709C182.996 125.01 185.407 123.556 186.326 121.828C187.245 120.099 187.631 117.967 189.238 116.805C191.537 115.142 195.064 116.63 196.48 119.048C198.493 122.487 197.07 127.396 193.504 129.315C191.438 130.427 188.414 131.172 188.332 133.462C188.291 134.601 189.11 135.602 190.024 136.318C191.662 137.604 194.331 138.213 195.727 136.683C197.717 134.501 195.495 129.891 198.25 128.732C200.684 127.708 203.476 131.372 205.749 130.046ZM268.583 105.64C269.407 104.4 270.234 103.042 271.608 102.41C273.366 101.602 275.476 102.244 277.143 103.215C278.81 104.186 280.298 105.485 282.127 106.127C283.988 106.781 286.026 106.693 288.003 106.596C291.291 106.435 294.579 106.274 297.867 106.113C277.993 94.95 255.639 87.1209 232.671 86.9009C230.735 86.8823 228.755 86.9251 226.938 87.5744C225.122 88.2238 223.472 89.5905 223.006 91.4124C222.297 94.187 224.9 97.1526 227.847 97.2411C226.308 98.3337 226.545 100.871 228.012 102.054C229.478 103.237 231.673 103.228 233.434 102.516C235.194 101.803 236.621 100.504 238.006 99.2321C240.583 96.8644 243.16 94.4967 245.737 92.129C247.357 90.6408 249.879 90.5777 252.069 90.9977C254.258 91.4176 256.401 92.2305 258.632 92.178C263.316 92.0676 267.466 96.7302 266.666 101.207C264.564 99.2842 261.506 98.3933 258.658 98.8737C255.811 99.3542 253.243 101.195 251.934 103.693C250.873 105.718 248.505 106.788 246.201 107.205C243.898 107.621 241.519 107.534 239.224 107.994C236.93 108.453 234.59 109.624 233.652 111.706C232.713 113.787 233.939 116.755 236.272 116.965C238.99 117.209 240.576 114.116 242.862 112.67C245.037 111.295 247.877 111.475 250.415 112.01C252.953 112.544 255.49 113.388 258.078 113.171C262.575 112.794 266.138 109.318 268.583 105.64ZM341.361 232.5C336.154 234.446 330.947 236.393 325.739 238.339C325.015 238.61 324.133 239.302 324.568 239.925C329.535 247.032 333.359 254.889 335.858 263.125C336.102 263.927 337.357 263.327 337.847 262.639C342.401 256.256 346.033 249.254 348.601 241.902C349.066 240.572 349.499 239.134 349.101 237.784C348.474 235.662 346.121 234.592 344.387 233.16C343.908 232.765 343.424 232.308 342.801 232.22C342.311 232.151 341.824 232.327 341.361 232.5ZM281.288 169.373C278.896 171.835 280.906 176.007 279.677 179.172C279.404 179.874 278.965 180.615 279.216 181.324C279.341 181.677 279.621 181.954 279.893 182.219C280.744 183.045 281.594 183.871 282.445 184.697C283.113 185.346 284.196 186.018 284.892 185.398C287.752 182.847 291.218 180.938 294.942 179.86C296.015 179.55 297.175 179.27 297.924 178.463C298.584 177.752 298.797 176.762 298.985 175.822C300.037 170.563 301.081 165.302 302.118 160.039C302.199 159.628 302.277 159.188 302.104 158.805C301.922 158.399 301.498 158.15 301.085 157.959C296.896 156.024 291.262 158.007 289.327 162.096C288.671 163.484 288.368 165.091 287.265 166.182C285.659 167.771 282.862 167.753 281.288 169.373ZM197.755 102.092C196.945 101.379 196.108 100.485 196.187 99.4274C196.273 98.3002 197.35 97.5228 198.325 96.9042C201.782 94.7121 205.239 92.52 208.696 90.3279C208.612 89.6769 207.671 89.6081 207.005 89.7255C198.054 91.3037 189.284 93.8475 180.909 97.295C190.248 102.877 199.208 109.055 207.711 115.777C208.743 113.506 211.399 112.388 212.971 110.43C214.957 107.957 215.106 104.283 217.548 102.229C218.747 101.221 220.527 100.522 220.767 99.0016C218.67 99.0158 216.573 99.03 214.476 99.0442C211.926 99.0615 209.21 99.1256 207.09 100.502C205.24 101.703 203.819 103.887 201.593 103.949C200.127 103.989 198.841 103.048 197.755 102.092ZM302.301 237.342C303.929 240.171 305.557 243 307.184 245.829C304.203 236.632 300.647 227.609 296.543 218.828C296.398 218.516 296.231 218.182 295.918 218.022C295.533 217.825 295.064 217.955 294.651 218.089C283.09 221.837 271.529 225.584 259.967 229.332C259.616 229.445 259.235 229.581 259.047 229.891C258.82 230.262 258.956 230.734 259.107 231.139C259.785 232.951 260.671 234.69 261.746 236.313C268.996 232.223 276.247 228.132 283.498 224.042C284.614 223.413 285.789 222.766 287.079 222.718C288.147 222.679 289.185 223.059 290.139 223.525C295.804 226.295 299.211 231.97 302.301 237.342ZM249.81 313.88C248.352 310.863 245.852 308.392 242.981 306.56C239.455 312.91 235.409 318.988 230.894 324.719C230.548 325.157 230.421 326.054 230.989 326.015C236.495 325.64 242 325.265 247.506 324.889C248.611 324.814 249.939 324.589 250.345 323.589C251.605 320.489 251.267 316.898 249.81 313.88ZM332.935 269.361C333.38 268.699 333.834 268.019 334.015 267.248C334.254 266.228 333.99 265.167 333.706 264.158C331.523 256.4 328.087 248.995 323.799 242.111C323.3 241.31 322.763 240.489 321.95 239.983C321.137 239.478 319.969 239.385 319.259 240.02C318.312 240.869 318.672 242.368 319.103 243.547C322.522 252.883 325.94 262.22 329.358 271.557C329.562 272.113 330.026 272.797 330.594 272.584C330.815 272.501 330.958 272.297 331.088 272.105C331.704 271.19 332.319 270.276 332.935 269.361ZM298.627 150.61C299.617 151.419 300.93 151.726 302.191 152.008C303.203 152.234 303.801 150.955 303.976 149.963C305.146 143.338 305.897 136.652 306.647 129.97C306.073 129.734 305.464 130.188 305.017 130.609C303.409 132.122 301.801 133.634 300.192 135.147C299.073 136.2 297.902 137.337 297.547 138.81C296.872 141.612 299.336 144.806 297.778 147.257C297.099 148.325 297.638 149.801 298.627 150.61ZM295.125 203.605C294.739 203.184 294.322 202.75 293.769 202.577C293.216 202.403 292.495 202.599 292.304 203.131C290.592 207.879 288.879 212.628 287.167 217.376C287.005 217.827 287.114 218.587 287.587 218.452C290.474 217.626 293.139 216.164 296.038 215.379C298.938 214.594 302.329 214.603 304.646 216.467C301.944 211.875 298.748 207.556 295.125 203.605ZM319.859 134.171C320.727 131.887 321.596 129.603 322.464 127.319C322.632 126.876 322.299 126.415 321.986 126.054C318.885 122.473 315.759 118.867 312.004 115.932C311.844 115.807 311.663 115.677 311.458 115.687C311.068 115.707 310.912 116.178 310.857 116.553C310.39 119.738 309.922 122.923 309.455 126.108C309.318 127.036 310.201 127.842 311.125 128.117C312.05 128.391 313.045 128.315 313.996 128.486C315.749 128.803 317.301 130.019 317.988 131.615C318.423 132.627 318.746 133.973 319.859 134.171ZM292.136 195.693C293.778 191.622 295.284 187.5 296.651 183.335C296.743 183.054 296.834 182.75 296.737 182.471C296.476 181.727 295.34 181.92 294.616 182.272C291.769 183.654 289.031 185.248 286.434 187.035C286.112 187.257 285.76 187.536 285.748 187.92C285.738 188.21 285.931 188.465 286.115 188.693C288.044 191.088 290.052 193.423 292.136 195.693ZM316.221 262.789C315.913 262.463 315.408 262.413 314.952 262.42C313.923 262.437 312.897 262.64 311.944 263.017C311.475 263.202 311.009 263.433 310.503 263.458C309.997 263.483 309.429 263.227 309.305 262.751C310.642 261.824 312.264 261.288 313.906 261.23C314.637 261.204 314.658 260.002 314.017 259.661C313.375 259.321 312.585 259.57 311.902 259.824C310.774 260.245 309.646 260.665 308.518 261.085C308.19 261.207 307.852 260.822 307.899 260.484C307.947 260.147 308.23 259.89 308.509 259.683C309.524 258.931 310.735 258.431 311.997 258.242C312.598 258.153 312.695 257.248 312.256 256.84C311.816 256.432 311.14 256.405 310.533 256.436C308.765 256.525 307.014 256.897 305.369 257.53C306.771 259.97 308.203 262.393 309.664 264.8C310.043 265.423 310.453 266.074 311.109 266.419C312.285 264.978 314.075 264.022 315.961 263.829C316.414 263.782 316.528 263.114 316.221 262.789ZM340.373 306.798C339.292 307.065 338.222 307.37 337.164 307.712C336.874 307.806 336.539 307.952 336.49 308.245C336.461 308.418 336.547 308.589 336.631 308.745C337.253 309.903 337.874 311.061 338.496 312.219C338.748 312.689 339.255 313.24 339.726 312.972C341.276 312.088 343.008 311.505 344.789 311.266C345.28 311.2 345.6 310.691 345.611 310.211C345.623 309.732 345.404 309.278 345.19 308.846C344.823 308.105 344.42 307.323 343.698 306.891C342.727 306.31 341.478 306.525 340.373 306.798ZM344.544 319.524C344.121 319.599 343.633 319.723 343.467 320.107C343.332 320.421 343.475 320.775 343.616 321.086C344.155 322.272 344.694 323.458 345.233 324.644C345.402 325.014 345.625 325.43 346.032 325.518C346.322 325.581 346.616 325.453 346.884 325.329C347.715 324.943 348.546 324.557 349.377 324.171C349.845 323.954 350.34 323.712 350.597 323.275C350.853 322.838 350.717 322.154 350.217 322.021C349.95 321.95 349.669 322.051 349.42 322.169C348.676 322.519 348.005 323.029 347.21 323.253C346.416 323.477 345.405 323.305 345.028 322.591C346.985 321.917 348.856 321.008 350.585 319.891C350.43 318.844 348.915 318.751 347.842 318.941C346.742 319.135 345.643 319.33 344.544 319.524ZM328.552 292.295C328.87 291.959 329.332 291.795 329.775 291.642C330.994 291.222 332.213 290.802 333.433 290.382C334.066 290.163 333.911 289.142 333.313 288.843C332.715 288.545 331.993 288.731 331.35 288.923C329.956 289.339 328.561 289.756 327.167 290.172C326.985 290.226 326.794 290.286 326.666 290.423C326.375 290.737 326.57 291.23 326.778 291.601C327.33 292.591 327.883 293.58 328.435 294.57C328.5 294.686 328.572 294.809 328.695 294.864C328.843 294.931 329.017 294.88 329.172 294.828C330.868 294.26 332.565 293.691 334.262 293.122C334.667 292.987 335.153 292.738 335.119 292.324C335.073 291.76 334.219 291.755 333.662 291.927C331.916 292.464 330.171 293.001 328.426 293.538C328.117 293.193 328.234 292.631 328.552 292.295ZM350.245 227.738C348.743 228.561 347.24 229.384 345.738 230.208C345.557 230.307 345.367 230.414 345.268 230.591C345.006 231.059 345.524 231.567 345.98 231.863C346.915 232.47 347.849 233.077 348.784 233.684C348.968 233.804 349.166 233.928 349.388 233.93C349.891 233.934 350.15 233.36 350.279 232.888C350.694 231.374 351.108 229.86 351.523 228.346C351.575 228.156 351.626 227.948 351.542 227.769C351.339 227.337 350.671 227.505 350.245 227.738ZM330.463 295.686C330.1 295.776 329.687 295.908 329.551 296.247C329.45 296.499 329.542 296.783 329.66 297.028C329.964 297.658 330.446 298.207 331.039 298.599C332.615 298.015 334.191 297.432 335.768 296.848C336.445 296.598 337.247 296.175 337.219 295.473C337.198 294.97 336.708 294.581 336.199 294.484C335.69 294.387 335.167 294.513 334.664 294.638C333.264 294.987 331.864 295.337 330.463 295.686ZM307.623 240.708C308.174 241.752 309.538 242.054 310.732 242.242C312.637 242.541 314.541 242.84 316.445 243.139C316.478 242.091 315.363 241.395 314.373 240.974C312.557 240.203 310.663 239.608 308.726 239.2C308.517 239.156 308.299 239.114 308.092 239.162C307.471 239.307 307.332 240.157 307.623 240.708ZM300.563 239.918C300.712 239.863 300.864 239.807 300.992 239.716C301.56 239.311 301.387 238.36 300.808 237.971C300.228 237.581 299.443 237.634 298.77 237.839C298.097 238.044 297.47 238.383 296.782 238.534C295.853 238.737 294.637 238.728 294.281 239.584C293.977 240.316 294.674 241.145 295.469 241.314C296.263 241.484 297.078 241.199 297.838 240.92C298.747 240.586 299.655 240.252 300.563 239.918ZM304.219 246.517C304.986 246.032 304.631 244.753 303.815 244.349C302.999 243.945 302.019 244.134 301.125 244.332C300.183 244.541 299.177 244.785 298.536 245.486C297.894 246.187 297.895 247.499 298.77 247.896C299.96 248.435 301.076 246.913 302.375 246.725C302.995 246.635 303.693 246.849 304.219 246.517ZM331.157 287.469C331.414 287.385 331.687 287.291 331.852 287.083C332.037 286.851 332.043 286.52 331.939 286.245C331.694 285.602 330.93 285.26 330.223 285.272C329.515 285.285 328.849 285.576 328.207 285.862C327.388 286.226 326.57 286.59 325.752 286.954C325.302 287.154 324.793 287.427 324.719 287.901C324.643 288.383 325.1 288.822 325.592 288.924C326.084 289.025 326.592 288.882 327.073 288.739C328.439 288.331 329.801 287.907 331.157 287.469ZM334.844 304.266C336.606 303.548 338.369 302.83 340.131 302.111C340.297 302.044 340.47 301.972 340.591 301.842C340.949 301.458 340.622 300.788 340.123 300.603C339.625 300.418 339.068 300.561 338.555 300.705C337.364 301.04 336.173 301.374 334.982 301.708C334.323 301.893 333.586 302.142 333.309 302.75C332.929 303.581 333.98 304.619 334.844 304.266ZM346.74 314.226C347.444 313.963 347.187 312.813 346.488 312.537C345.789 312.262 345.004 312.545 344.296 312.798C342.909 313.293 341.479 313.677 340.025 313.943C339.519 314.603 340.136 315.617 340.953 315.841C341.771 316.066 342.633 315.765 343.425 315.468C344.53 315.054 345.635 314.64 346.74 314.226ZM309.224 237.662C310.644 238.023 312.064 238.384 313.484 238.745C314.024 238.882 314.857 238.805 314.818 238.265C312.366 236.621 309.544 235.498 306.608 234.998C306.452 234.971 306.288 234.947 306.139 234.999C305.63 235.179 305.824 235.944 306.208 236.315C307.001 237.082 308.139 237.387 309.224 237.662ZM314.589 232.344C315.091 233.515 315.593 234.686 316.096 235.856C316.398 236.561 316.738 237.311 317.405 237.716C318.072 238.122 319.158 237.95 319.377 237.216C319.543 236.657 319.154 236.099 318.783 235.641C317.369 233.893 315.913 232.177 314.416 230.495C314.085 231.052 314.335 231.751 314.589 232.344ZM312.157 234.544C312.423 234.633 312.748 234.713 312.963 234.537C313.215 234.33 313.124 233.931 312.953 233.658C312.331 232.664 311.071 232.271 309.918 231.954C308.368 231.527 306.818 231.1 305.268 230.673C304.786 230.54 304.423 231.222 304.649 231.655C304.875 232.089 305.393 232.284 305.866 232.442C307.963 233.143 310.06 233.843 312.157 234.544ZM332.885 299.09C332.449 299.218 331.975 299.373 331.737 299.749C331.313 300.418 331.932 301.29 332.661 301.633C334.305 300.337 336.399 299.587 338.518 299.538C339.239 299.521 339.302 298.349 338.691 297.978C338.079 297.607 337.286 297.798 336.596 298.001C335.359 298.364 334.122 298.727 332.885 299.09ZM325.999 280.792C325 281.049 324 281.305 323 281.561C322.084 281.796 320.935 282.378 321.155 283.272C321.342 284.033 322.439 284.205 323.175 283.885C323.911 283.564 324.473 282.943 325.205 282.615C326.403 282.079 328.09 282.275 328.761 281.174C328.189 280.386 326.96 280.546 325.999 280.792ZM288.538 229.549C288.346 229.63 288.148 229.721 288.022 229.883C287.695 230.299 288.052 230.947 288.557 231.13C289.063 231.312 289.624 231.181 290.149 231.059C291.912 230.65 293.707 230.367 295.513 230.212C295.689 229.251 294.394 228.713 293.388 228.674C291.731 228.61 290.061 228.912 288.538 229.549ZM317.767 266.802C318.285 266.27 317.992 265.085 317.252 265.225C315.288 265.597 313.394 266.317 311.694 267.339C311.296 268.123 312.396 268.938 313.287 268.801C314.177 268.665 314.893 268.032 315.727 267.7C316.426 267.423 317.249 267.334 317.767 266.802ZM318.843 249.597C318.61 249.312 318.238 249.177 317.885 249.055C316.169 248.46 314.452 247.865 312.736 247.27C312.266 247.107 311.74 246.945 311.283 247.139C310.826 247.333 310.644 248.067 311.091 248.282C313.29 249.336 315.628 250.117 318.03 250.602C318.279 250.653 318.559 250.695 318.774 250.562C319.09 250.367 319.076 249.882 318.843 249.597ZM310.762 230.019C311.006 230.16 311.328 229.894 311.335 229.618C311.341 229.342 311.15 229.102 310.957 228.899C309.113 226.949 306.407 226.038 303.819 225.199C303.163 224.986 302.202 224.914 302.011 225.559C305.003 226.901 307.925 228.39 310.762 230.019ZM348.939 316.544C348.784 316.021 348.215 315.696 347.657 315.641C347.098 315.587 346.544 315.747 346.008 315.906C345.071 316.184 344.135 316.461 343.199 316.739C342.552 316.931 341.765 317.308 341.819 317.962C341.864 318.494 342.503 318.812 343.051 318.761C343.599 318.71 344.082 318.41 344.579 318.179C345.662 317.676 346.898 317.488 348.088 317.645C348.644 317.719 349.093 317.067 348.939 316.544ZM290.211 233.527C290.203 234.018 290.599 234.487 291.097 234.576C291.42 234.633 291.749 234.547 292.064 234.462C293.887 233.969 295.71 233.477 297.533 232.984C297.561 232.488 297.119 232.059 296.628 231.915C296.137 231.771 295.609 231.844 295.102 231.919C293.778 232.114 292.454 232.31 291.131 232.505C290.629 232.579 290.218 233.035 290.211 233.527ZM320.318 268.873C320.39 268.412 319.922 268.004 319.444 267.946C318.966 267.888 318.498 268.077 318.055 268.262C316.649 268.851 315.242 269.44 313.835 270.029C313.417 270.544 313.932 271.36 314.592 271.505C315.251 271.65 315.92 271.358 316.529 271.073C317.49 270.624 318.451 270.175 319.412 269.725C319.807 269.541 320.252 269.294 320.318 268.873ZM300.201 221.653C300.363 221.933 300.685 222.082 300.987 222.213C303.494 223.302 306 224.39 308.506 225.479C308.951 225.672 309.6 225.803 309.82 225.381C310.055 224.928 309.474 224.496 308.993 224.297C306.296 223.187 303.6 222.076 300.903 220.965C300.768 220.91 300.623 220.853 300.478 220.876C300.151 220.929 300.039 221.373 300.201 221.653ZM313.181 253.001C313.097 252.966 313.006 252.931 312.917 252.948C312.824 252.966 312.746 253.045 312.733 253.136C312.952 254.59 314.635 255.307 316.077 255.761C317.962 256.354 319.846 256.947 321.731 257.54C322.184 257.054 321.444 256.381 320.822 256.127C318.275 255.085 315.728 254.043 313.181 253.001ZM299.245 235.958C299.455 235.574 299.139 235.094 298.74 234.895C298.043 234.547 297.203 234.741 296.447 234.942C295.586 235.171 294.726 235.4 293.865 235.629C293.245 235.794 292.497 236.106 292.474 236.729C292.457 237.195 292.911 237.577 293.384 237.662C293.857 237.748 294.34 237.613 294.801 237.479C296.029 237.124 297.256 236.769 298.484 236.414C298.778 236.329 299.101 236.221 299.245 235.958ZM341.914 303.62C341.402 303.333 340.759 303.501 340.195 303.675C338.404 304.231 336.613 304.786 334.821 305.341C334.425 305.956 335.146 306.774 335.893 306.818C336.639 306.861 337.316 306.438 337.976 306.096C339.175 305.473 340.496 305.072 341.848 304.922C342.436 304.856 342.426 303.907 341.914 303.62ZM307.703 250.897C307.129 250.748 306.521 250.852 305.937 250.956C305.214 251.086 304.491 251.215 303.769 251.344C302.949 251.491 301.91 251.902 301.997 252.706C302.048 253.18 302.531 253.522 303.017 253.591C303.504 253.66 303.993 253.519 304.464 253.38C305.906 252.955 307.348 252.529 308.791 252.103C308.805 251.527 308.277 251.046 307.703 250.897ZM302.783 241.477C302.382 241.08 301.721 241.051 301.17 241.206C300.619 241.36 300.126 241.663 299.587 241.855C298.953 242.081 298.267 242.148 297.635 242.379C297.002 242.611 296.391 243.074 296.282 243.721C296.519 244.259 297.316 244.199 297.899 244.047C299.444 243.643 300.989 243.24 302.534 242.837C303.087 242.692 303.184 241.874 302.783 241.477ZM300.633 248.805C299.99 248.987 300.1 250.018 300.687 250.331C301.274 250.645 301.999 250.472 302.643 250.291C303.993 249.913 305.344 249.535 306.694 249.157C306.793 248.503 306.176 247.911 305.51 247.768C304.844 247.626 304.156 247.812 303.501 247.997C302.545 248.266 301.589 248.536 300.633 248.805ZM308.295 156.69C309.154 156.091 309.022 154.853 309.047 153.828C307.928 153.695 306.702 153.585 305.759 154.183C304.815 154.782 304.562 156.397 305.572 156.882C305.919 157.049 306.324 157.045 306.712 157.036C307.261 157.025 307.849 157.002 308.295 156.69ZM310.46 243.899C309.919 243.845 309.131 244.076 309.285 244.582C309.359 244.825 309.634 244.944 309.879 245.03C312.233 245.855 314.69 246.401 317.179 246.653C317.487 246.584 317.578 246.161 317.417 245.897C317.255 245.633 316.945 245.497 316.651 245.382C314.672 244.611 312.581 244.11 310.46 243.899ZM299.506 218.57C301.542 219.584 303.617 220.524 305.725 221.389C306.135 221.556 306.599 221.723 307.011 221.559C307.422 221.395 307.579 220.727 307.172 220.554C304.775 219.537 302.378 218.521 299.981 217.504C299.601 217.342 299.058 217.227 298.852 217.577C298.627 217.96 299.101 218.368 299.506 218.57ZM319.655 252.586C319.308 252.281 318.842 252.144 318.393 252.016C316.502 251.478 314.611 250.939 312.72 250.4C312.458 250.326 312.167 250.253 311.922 250.37C311.678 250.487 311.589 250.886 311.834 251.002C314.421 252.232 317.152 253.176 319.958 253.812C320.19 253.417 320.002 252.891 319.655 252.586ZM321.139 280.879C322.487 280.417 323.835 279.954 325.184 279.492C325.777 279.288 326.414 279.053 326.754 278.539C326.667 278.079 326.153 277.789 325.67 277.78C325.188 277.771 324.731 277.973 324.293 278.171C323.112 278.707 321.93 279.242 320.748 279.777C320.321 279.971 319.83 280.255 319.822 280.712C320.044 281.131 320.681 281.036 321.139 280.879ZM310.424 254.734C310.739 254.394 310.456 253.803 310.018 253.634C309.58 253.465 309.087 253.581 308.631 253.699C307.084 254.101 305.536 254.502 303.988 254.904C303.708 255.219 303.96 255.752 304.355 255.917C304.75 256.082 305.202 255.994 305.622 255.904C307.018 255.603 308.415 255.303 309.811 255.002C310.034 254.954 310.272 254.898 310.424 254.734ZM329.335 282.852C329.015 282.784 328.689 282.906 328.387 283.026C326.737 283.68 325.088 284.333 323.438 284.987C322.96 285.176 323.153 285.963 323.638 286.135C324.123 286.306 324.652 286.084 325.117 285.866C326.535 285.201 327.953 284.535 329.37 283.87C329.531 283.795 329.703 283.709 329.783 283.553C329.927 283.269 329.654 282.92 329.335 282.852ZM317.221 257.451C316.586 257.223 315.67 257.104 315.416 257.712C317.652 258.829 320.024 259.69 322.467 260.271C322.965 259.979 322.342 259.289 321.796 259.093C320.271 258.546 318.746 257.998 317.221 257.451ZM286.463 227.495C286.036 227.966 286.456 228.857 287.102 228.852C288.579 227.917 290.304 227.354 292.063 227.231C291.505 226.555 290.539 226.298 289.649 226.366C288.759 226.433 287.919 226.777 287.097 227.117C286.867 227.212 286.628 227.313 286.463 227.495ZM322.595 262.621C323.079 262.735 323.84 262.603 323.72 262.135C321.7 261.251 319.572 260.601 317.394 260.204C317.153 260.518 317.298 260.993 317.599 261.254C317.899 261.516 318.309 261.616 318.701 261.708C319.999 262.013 321.297 262.317 322.595 262.621ZM321.068 265.074C322.199 265.414 323.37 265.627 324.551 265.71C324.787 265.407 324.652 264.944 324.363 264.687C324.073 264.431 323.677 264.329 323.297 264.235C322.092 263.938 320.888 263.641 319.683 263.344C319.246 264.074 320.236 264.825 321.068 265.074ZM346.821 327.33C346.551 327.972 346.902 328.871 347.611 328.959C348.494 328.138 349.253 327.19 349.854 326.157C349.512 325.798 348.908 325.885 348.435 326.054C347.764 326.293 347.091 326.688 346.821 327.33ZM327.959 273.999C327.384 273.48 326.674 273.103 325.914 272.912C325.791 273.956 326.41 275.045 327.386 275.503C327.62 275.613 327.897 275.688 328.136 275.589C328.74 275.34 328.439 274.433 327.959 273.999ZM325.132 267.436C324.737 267.159 324.226 267.106 323.74 267.062C323.143 267.008 322.545 266.955 321.947 266.901C321.657 267.577 322.478 268.235 323.225 268.341C323.972 268.446 324.79 268.302 325.442 268.67C325.738 268.294 325.527 267.712 325.132 267.436ZM329.764 280.173C329.999 280.366 330.287 280.539 330.594 280.507C330.701 279.085 329.711 277.761 328.477 276.985C328.332 278.165 328.831 279.402 329.764 280.173ZM325.935 270.586C325.243 270.216 324.428 270.064 323.644 270.159C323.928 270.9 324.606 271.488 325.397 271.68C325.82 271.783 326.349 271.737 326.58 271.378C326.81 271.018 326.355 270.424 325.998 270.667M287.171 224.508C286.515 224.621 285.899 224.944 285.444 225.415C286.259 225.638 287.188 225.413 287.8 224.845C287.649 224.649 287.415 224.515 287.165 224.481" fill="#1E1E1E"/>
<path fill-rule="evenodd" clip-rule="evenodd" d="M273.095 287.776C279.788 281.543 289.182 282.422 295.753 289.261C301.468 295.212 300.11 303.073 293.62 309.666C291.172 312.128 286.257 313.761 282.701 313.362C279.69 313.071 275.002 310.92 272.218 308.937C270.928 308.019 269.749 306.126 268.638 303.251L268.473 302.821C266.498 297.512 267.832 291.899 272.307 288.378L272.517 288.216L272.564 288.153C272.603 288.106 272.648 288.062 272.699 288.021L272.78 287.96L272.871 287.904L273.061 287.81L273.095 287.776ZM284.73 309.186L282.706 311.285L282.929 311.304C285.004 311.45 287.034 311.135 288.88 310.374L288.983 310.33L288.84 310.322C287.564 310.234 286.216 309.856 284.816 309.225L284.73 309.186ZM278.824 305.244L278.634 305.075L278.434 305.264C277.65 306.005 276.852 306.765 276.036 307.548L275.112 308.437C275.374 308.622 275.646 308.802 275.929 308.978C277.21 309.787 278.592 310.401 280.023 310.799L280.33 310.881L281.81 309.37L282.917 308.234L282.845 308.192C281.453 307.364 280.085 306.347 278.824 305.244ZM288.48 305.296L286.067 307.8L286.189 307.851C288.066 308.614 289.736 308.758 291.173 308.196L291.324 308.133L291.178 307.974C290.453 307.187 289.672 306.406 288.818 305.609L288.48 305.296ZM273.942 300.014L273.514 300.422C272.897 301.004 272.275 301.582 271.647 302.156L270.659 303.051L270.742 303.243C271.411 304.737 272.342 306.037 273.556 307.175L273.599 307.215L273.737 307.079C274.616 306.215 275.524 305.339 276.469 304.442L277.205 303.747L277.005 303.552C275.905 302.467 274.964 301.405 274.172 300.332L273.942 300.014ZM292.421 301.208L289.788 303.939L289.814 303.964C290.825 304.898 291.748 305.815 292.606 306.742L292.866 307.026L292.874 307.017C293.773 305.834 293.618 303.905 292.538 301.466L292.421 301.208ZM283.208 300.838L283.012 301.015C282.112 301.834 281.199 302.675 280.268 303.543L280.005 303.787L280.25 303.997C281.538 305.088 282.771 306.004 284.004 306.743L284.237 306.879L285.89 305.178L287.027 304.003L286.652 303.679C285.969 303.095 285.232 302.483 284.305 301.728L283.208 300.838ZM297.276 296.173L293.633 299.951L293.751 300.173C293.952 300.556 294.149 300.945 294.342 301.34L294.629 301.938L294.896 302.513C295.168 303.07 295.356 303.625 295.456 304.171L295.471 304.263L295.58 304.074C297.054 301.453 297.659 298.756 297.289 296.25L297.276 296.173ZM289.262 296.131L289.075 295.891L288.41 296.432L286.559 297.916L286.228 298.185C285.887 298.464 285.582 298.72 285.299 298.962L284.971 299.248L284.632 299.551L285.396 300.169C286.247 300.861 286.989 301.477 287.682 302.071L288.342 302.641L290.459 300.442L291.466 299.391L291.459 299.377C290.826 298.294 290.073 297.188 289.262 296.131ZM277.983 296.353L277.825 296.202L277.775 296.254C277.155 296.882 276.531 297.506 275.901 298.125L275.272 298.737L275.403 298.932C276.169 300.044 277.116 301.13 278.221 302.182L278.5 302.445L278.551 302.491L278.637 302.411C279.275 301.82 279.929 301.22 280.606 300.603L281.696 299.614L281.546 299.492C280.319 298.479 279.134 297.435 277.983 296.353ZM271.25 292.344L271.189 292.441C269.69 294.885 269.228 297.921 269.924 300.815L269.986 301.062L270.018 301.18L270.332 300.896C270.989 300.296 271.641 299.69 272.288 299.079L272.947 298.451L272.884 298.34C271.806 296.395 271.241 294.419 271.249 292.389L271.25 292.344ZM283.156 290.515L282.374 291.386C281.487 292.365 280.587 293.333 279.675 294.291L279.138 294.851L279.272 294.977C280.334 295.973 281.435 296.942 282.584 297.896L283.118 298.334L283.629 297.879C283.956 297.59 284.307 297.293 284.704 296.966L285.355 296.437L286.885 295.216C287.161 294.994 287.408 294.795 287.637 294.607L287.861 294.423L287.753 294.3C287.228 293.709 286.734 293.202 286.323 292.83L286.203 292.722C285.369 291.993 284.457 291.326 283.442 290.691L283.156 290.515ZM294.201 290.409L294.119 290.548C293.275 291.936 292.111 293.237 290.528 294.652L290.395 294.769L290.443 294.832C291.134 295.774 291.79 296.76 292.412 297.789L292.637 298.167L294.408 296.313L296.649 293.955L296.597 293.831C296.082 292.644 295.317 291.53 294.299 290.505L294.201 290.409ZM273.234 291.465L273.226 291.545C273.043 293.417 273.422 295.258 274.308 297.07L274.33 297.114L274.567 296.885C275.089 296.372 275.608 295.855 276.124 295.335L276.518 294.934L276.358 294.776C275.45 293.87 274.559 292.933 273.68 291.962L273.234 291.465ZM274.115 289.394L273.979 289.457L274.014 289.498C275.213 290.884 276.435 292.198 277.698 293.457L277.828 293.585L278.356 293.037C279.281 292.064 280.194 291.081 281.094 290.086L281.533 289.597L281.485 289.572C281.263 289.455 281.035 289.338 280.801 289.22L280.445 289.043C278.358 288.05 276.817 288.161 274.324 289.297L274.115 289.394ZM287.162 285.852L286.393 286.776C285.875 287.395 285.351 288.01 284.822 288.621L284.452 289.046L284.546 289.103C285.944 289.977 287.135 290.926 288.114 291.977L288.336 292.222C288.553 292.465 288.766 292.713 288.977 292.964L289.219 293.256L289.253 293.227C290.812 291.818 291.913 290.534 292.669 289.155L292.69 289.113L292.491 288.96C290.469 287.42 288.989 286.505 287.422 285.942L287.162 285.852ZM284.071 285.322C282.091 285.309 280.288 285.652 278.624 286.357L278.528 286.397L278.694 286.418C279.059 286.47 279.416 286.56 279.768 286.689L279.944 286.757C280.887 287.159 281.754 287.562 282.567 287.981L282.838 288.124L283.371 287.514C283.914 286.888 284.451 286.258 284.983 285.624L285.174 285.394L284.942 285.368C284.749 285.349 284.556 285.336 284.362 285.329L284.071 285.322Z" fill="#BEBFEF"/>
<path fill-rule="evenodd" clip-rule="evenodd" d="M317.73 153.886C318.356 152.242 320.61 151.564 322.273 152.249C323.936 152.933 324.968 154.646 325.229 156.379C325.489 158.112 325.094 159.874 324.585 161.555C324.121 163.087 323.561 164.592 322.909 166.059C322.848 166.195 322.767 166.348 322.618 166.381C322.459 166.415 322.312 166.295 322.197 166.183C319.372 163.407 317.668 159.585 317.52 155.688C317.497 155.08 317.513 154.456 317.73 153.886ZM322.615 154.286C322.151 153.901 321.553 153.649 320.942 153.667C319.517 153.709 318.523 155.216 318.555 156.597C318.586 157.979 319.346 159.234 320.082 160.417C320.61 161.264 321.138 162.112 321.666 162.959C321.846 163.248 322.2 163.577 322.48 163.377C322.593 163.297 322.636 163.155 322.673 163.024C322.889 162.254 323.105 161.484 323.321 160.715C323.63 159.614 323.941 158.496 323.922 157.355C323.903 156.215 323.508 155.029 322.615 154.286L322.615 154.286Z" fill="#BEBFEF"/>
<path fill-rule="evenodd" clip-rule="evenodd" d="M321.683 158.71C321.336 158.805 320.957 158.787 320.621 158.66C319.969 158.413 319.518 157.736 319.556 157.059C319.594 156.381 320.117 155.755 320.792 155.578C321.816 155.311 322.969 156.225 322.901 157.251C322.857 157.916 322.345 158.529 321.683 158.71Z" fill="#BEBFEF"/>
</svg>
